<svg baseProfile="full" height="109" preserveAspectRatio="none" shape-rendering="geometricPrecision" version="1.1" viewBox="0,0,194,109" width="194" xmlns="http://www.w3.org/2000/svg" xmlns:ev="http://www.w3.org/2001/xml-events" xmlns:xlink="http://www.w3.org/1999/xlink"><title>Jigsaw puzzle piece clips</title><desc>Created with the piecemaker. Piece count: 32</desc><defs /><g><g><rect fill="white" height="109" width="194" x="0" y="0" /></g></g><g><g><path d="M 0 0  L 24.250000 0  c 0.0,5.836130622161482 -1.2125000000000001,12.895358798393858 3.867391314045522,10.987858798393857&#10;c 2.159381450714473,-1.635 3.565649450092209,0 3.565649450092209,2.637141201606143&#10;c 0,2.2612347198527285 -2.212066019586128,3.8962347198527283 -2.8560094664105735,2.2612347198527285&#10;c -3.1525000000000003,-1.635 -1.94,5.7225 -4.577031297727157,11.363765280147271 c -0.0,4.920843886152976 1.2125000000000001,11.9084696650909 -3.3843479838379293,10.0009696650909&#10;c -3.6575565012927624,-1.635 -4.471563774515173,0 -4.471563774515173,3.6240303349091008&#10;c 0,3.6736140806216007 2.4364449826456585,5.3086140806216005 3.897262374952485,3.6736140806216007&#10;c 3.1525000000000003,-1.635 1.94,5.7225 3.958649383400617,9.9513859193784 c 0.0,3.655132531698677 -1.2125000000000001,12.186844520284467 3.723203112448388,10.279344520284466&#10;c 0.6337548967941175,-1.635 2.2544402169455564,0 2.2544402169455564,3.345655479715534&#10;c 0,3.701395108317776 -5.068345760989557,5.336395108317776 -5.116152201697788,3.701395108317776&#10;c -3.1525000000000003,-1.635 -1.94,5.7225 -0.8614911276961568,9.923604891682224 c 0.0,6.66466383696022 -1.2125000000000001,11.316490111554836 1.8199476807835377,9.408990111554836&#10;c 1.5503415675304577,-1.635 5.476418351736968,0 5.476418351736968,4.216009888445164&#10;c 0,3.1788220910424485 -5.737825248277479,4.813822091042448 -6.330934537404053,3.1788220910424485&#10;c -3.1525000000000003,-1.635 -1.94,5.7225 -0.9654314951164533,10.446177908957551 L 0 109 " fill="none" stroke="black" stroke-width="0.1" style="vector-effect:non-scaling-stroke;" /></g><g><path d="M 0 0  L 48.500000 0  c -0.0,7.098124621608765 1.2125000000000001,13.140565451454496 0.08473513578887752,11.233065451454495&#10;c -7.6941098576915286,-1.635 -7.910817075128843,0 -7.910817075128843,2.391934548545505&#10;c 0,4.156697922653109 2.591051124563923,5.791697922653109 5.536605319237049,4.156697922653109&#10;c 3.1525000000000003,-1.635 1.94,5.7225 2.289476620102917,9.468302077346891 c 0.0,7.018824093440651 -1.2125000000000001,11.255646241432915 0.13959078252633295,9.348146241432914&#10;c 2.7919203382957325,-1.635 7.812069863640909,0 7.812069863640909,4.276853758567086&#10;c 0,2.6819875920506 -5.857477316074562,4.3169875920506 -6.607502605059478,2.6819875920506&#10;c -3.1525000000000003,-1.635 -1.94,5.7225 -1.3441580411077636,10.9430124079494 c -0.0,1.875813848266342 1.2125000000000001,11.188942947440074 -0.17343903841079872,9.281442947440073&#10;c -5.447397198162548,-1.635 -6.813821168240622,0 -6.813821168240622,4.343557052559927&#10;c 0,3.0498375525126313 1.756980632578465,4.684837552512631 5.333372780687487,3.0498375525126313&#10;c 3.1525000000000003,-1.635 1.94,5.7225 1.6538874259639345,10.575162447487369 c -0.0,5.936922620170329 1.2125000000000001,13.464225025948878 -4.7885435986740275,11.556725025948877&#10;c -1.8606292345734252,-1.635 -3.4560705062491026,0 -3.4560705062491026,2.068274974051123&#10;c 0,3.5785127681163047 2.3174840315427905,5.2135127681163045 5.573216822668737,3.5785127681163047&#10;c 3.1525000000000003,-1.635 1.94,5.7225 2.671397282254393,10.046487231883695 L 0 109 " fill="none" stroke="black" stroke-width="0.1" style="vector-effect:non-scaling-stroke;" /></g><g><path d="M 0 0  L 72.750000 0  c 0.0,6.514310612473396 -1.2125000000000001,12.453662316642287 4.384146920976882,10.546162316642286&#10;c 1.2181167316495443,-1.635 3.829741444028702,0 3.829741444028702,3.0788376833577136&#10;c 0,3.6134631140740936 -2.4632632947178785,5.248463114074093 -6.283123993597999,3.6134631140740936&#10;c -3.1525000000000003,-1.635 -1.94,5.7225 -1.9307643714075846,10.011536885925906 c 0.0,3.575756758244323 -1.2125000000000001,12.616811151921471 3.056501034838561,10.70931115192147&#10;c 1.8352029391560811,-1.635 3.8130199842697867,0 3.8130199842697867,2.9156888480785295&#10;c 0,2.127368696085208 -3.5431118275749256,3.7623686960852076 -3.621696116422446,2.127368696085208&#10;c -3.1525000000000003,-1.635 -1.94,5.7225 -3.2478249026859016,11.497631303914792 c 0.0,1.4620279398902887 -1.2125000000000001,11.870740510617589 1.0385939771076964,9.963240510617588&#10;c 3.233270235169837,-1.635 5.0075155841908545,0 5.0075155841908545,3.661759489382412&#10;c 0,2.206136849936776 -0.8936508374706157,3.8411368499367757 -1.117171044658944,2.206136849936776&#10;c -3.1525000000000003,-1.635 -1.94,5.7225 -4.928938516639607,11.418863150063224 c 0.0,7.458444575361418 -1.2125000000000001,13.057781765906578 3.680394351220312,11.150281765906577&#10;c 1.8105930531930479,-1.635 4.469768758705,0 4.469768758705,2.474718234093423&#10;c 0,2.8782644905437103 -3.778155452251368,4.51326449054371 -5.071631647829826,2.8782644905437103&#10;c -3.1525000000000003,-1.635 -1.94,5.7225 -3.0785314620954862,10.74673550945629 L 0 109 " fill="none" stroke="black" stroke-width="0.1" style="vector-effect:non-scaling-stroke;" /></g><g><path d="M 0 0  L 97.000000 0  c -0.0,6.995589845073512 1.2125000000000001,13.36962086882947 -1.140285558006891,11.46212086882947&#10;c -4.7193931569844345,-1.635 -5.062163309083438,0 -5.062163309083438,2.1628791311705307&#10;c 0,3.609949970858345 1.3800105394716486,5.244949970858345 2.1982554252868596,3.609949970858345&#10;c 3.1525000000000003,-1.635 1.94,5.7225 4.004193441803469,10.015050029141655 c 0.0,5.465768739480472 -1.2125000000000001,12.381234548187479 1.4145239563239438,10.473734548187478&#10;c 3.7465876537544522,-1.635 5.577444342710874,0 5.577444342710874,3.151265451812522&#10;c 0,3.567979666920589 -1.2126139243720375,5.202979666920589 -2.4529805233308046,3.567979666920589&#10;c -3.1525000000000003,-1.635 -1.94,5.7225 -4.538987775704013,10.05702033307941 c -0.0,6.6483356815464125 1.2125000000000001,12.16231282218757 -2.55779887566914,10.254812822187569&#10;c -5.07071144848295,-1.635 -5.18941707979411,0 -5.18941707979411,3.370187177812431&#10;c 0,3.0566429181510806 1.3814939285245944,4.69164291815108 2.52898562978642,3.0566429181510806&#10;c 3.1525000000000003,-1.635 1.94,5.7225 5.21823032567683,10.56835708184892 c -0.0,7.41504316411651 1.2125000000000001,13.537796945580437 -3.0262791364757904,11.630296945580437&#10;c -1.479654908838716,-1.635 -3.106683557164864,0 -3.106683557164864,1.9947030544195634&#10;c 0,2.756859165094397 3.602160080526854,4.391859165094397 6.554281108128062,2.756859165094397&#10;c 3.1525000000000003,-1.635 1.94,5.7225 -0.42131841448740737,10.868140834905603 L 0 109 " fill="none" stroke="black" stroke-width="0.1" style="vector-effect:non-scaling-stroke;" /></g><g><path d="M 0 0  L 121.250000 0  c -0.0,2.109561881877771 1.2125000000000001,13.1130220110274 -5.256836117703143,11.2055220110274&#10;c -1.1909428384695524,-1.635 -1.605364307081432,0 -1.605364307081432,2.4194779889726004&#10;c 0,2.808768147360272 0.8626610520827648,4.443768147360272 1.6515519309672007,2.808768147360272&#10;c 3.1525000000000003,-1.635 1.94,5.7225 5.2106484938173745,10.816231852639728 c -0.0,7.301887289135104 1.2125000000000001,12.665541643228163 -1.0650325812693944,10.758041643228163&#10;c -6.040398623904263,-1.635 -6.534609029027228,0 -6.534609029027228,2.8669583567718373&#10;c 0,2.465420177414096 1.9672309998939825,4.100420177414096 3.1030909080707927,2.465420177414096&#10;c 3.1525000000000003,-1.635 1.94,5.7225 4.4965507022258295,11.159579822585904 c -0.0,7.176620576770379 1.2125000000000001,11.200305014507764 0.38053400941714033,9.292805014507763&#10;c -2.1218352816060113,-1.635 -7.358690275607479,0 -7.358690275607479,4.332194985492237&#10;c 0,3.1581319203644362 0.5577304976844565,4.793131920364436 2.654033245115297,3.1581319203644362&#10;c 3.1525000000000003,-1.635 1.94,5.7225 4.324123021075042,10.466868079635564 c -0.0,4.36266205574428 1.2125000000000001,13.602425763444874 -3.9743354292701922,11.694925763444873&#10;c -1.2592963047639607,-1.635 -3.3662049927420505,0 -3.3662049927420505,1.9300742365551269&#10;c 0,1.9893362086073694 2.570829788055276,3.624336208607369 7.107931309329828,1.9893362086073694&#10;c 3.1525000000000003,-1.635 1.94,5.7225 0.23260911268241458,11.63566379139263 L 0 109 " fill="none" stroke="black" stroke-width="0.1" style="vector-effect:non-scaling-stroke;" /></g><g><path d="M 0 0  L 145.500000 0  c -0.0,6.956528935992588 1.2125000000000001,13.381406755608326 0.1056767326105183,11.473906755608326&#10;c -3.399750793352529,-1.635 -7.536619605847627,0 -7.536619605847627,2.1510932443916744&#10;c 0,2.2824147874719536 5.774642796810733,3.9174147874719534 5.906240138279207,2.2824147874719536&#10;c 3.1525000000000003,-1.635 1.94,5.7225 1.524702734957902,11.342585212528046 c -0.0,7.834379974751692 1.2125000000000001,13.49779631898439 -1.4677125654640546,11.59029631898439&#10;c -5.21739245349807,-1.635 -5.469506818887801,0 -5.469506818887801,2.0347036810156105&#10;c 0,2.12893676710822 3.523521375730695,3.76393676710822 4.334604979987752,2.12893676710822&#10;c 3.1525000000000003,-1.635 1.94,5.7225 2.602614404364104,11.49606323289178 c 0.0,2.59273344858631 -1.2125000000000001,13.242017960353081 0.4557669798396609,11.33451796035308&#10;c 4.3141069619893555,-1.635 6.482006384833539,0 6.482006384833539,2.2904820396469194&#10;c 0,2.4997253936670596 -0.672192552318192,4.134725393667059 -2.0023195031738465,2.4997253936670596&#10;c -3.1525000000000003,-1.635 -1.94,5.7225 -4.9354538614993535,11.12527460633294 c -0.0,7.476185058052307 1.2125000000000001,13.112414577296986 -4.43944036780729,11.204914577296986&#10;c -1.7112907392762395,-1.635 -1.8920663353136131,0 -1.8920663353136131,2.420085422703014&#10;c 0,3.836202033642195 1.0661683984138424,5.471202033642195 1.086130116614071,3.836202033642195&#10;c 3.1525000000000003,-1.635 1.94,5.7225 5.245376586506832,9.788797966357805 L 0 109 " fill="none" stroke="black" stroke-width="0.1" style="vector-effect:non-scaling-stroke;" /></g><g><path d="M 0 0  L 169.750000 0  c -0.0,4.944590933876635 1.2125000000000001,12.025161591460517 -0.25876139470472964,10.117661591460516&#10;c -5.809233728854137,-1.635 -7.062386700793427,0 -7.062386700793427,3.507338408539484&#10;c 0,2.0658026007628774 5.116252145287276,3.700802600762877 7.546975152882272,2.0658026007628774&#10;c 3.1525000000000003,-1.635 1.94,5.7225 -0.22582705738411502,11.559197399237123 c -0.0,3.9178590322315965 1.2125000000000001,12.494183158809223 -2.6103225576122586,10.586683158809223&#10;c -4.0952386802768235,-1.635 -5.5713665002687485,0 -5.5713665002687485,3.0383168411907775&#10;c 0,3.9495616439267067 6.616011887451042,5.5845616439267065 6.5989624611728015,3.9495616439267067&#10;c 3.1525000000000003,-1.635 1.94,5.7225 1.5827265967082056,9.675438356073293 c -0.0,6.95054483503532 1.2125000000000001,12.505910787465654 0.3024237374378813,10.598410787465653&#10;c -4.477504645824456,-1.635 -6.440485517830567,0 -6.440485517830567,3.026589212534347&#10;c 0,2.953227078317994 0.9938364166025061,4.588227078317994 1.1108045465332674,2.953227078317994&#10;c 3.1525000000000003,-1.635 1.94,5.7225 5.027257233859418,10.671772921682006 c -0.0,4.556052630829317 1.2125000000000001,13.583056107740381 0.18088362346884926,11.67555610774038&#10;c -4.925315979574557,-1.635 -7.231471448355466,0 -7.231471448355466,1.9494438922596196&#10;c 0,2.352737166212332 1.2926857814965056,3.987737166212332 1.8211377180071038,2.352737166212332&#10;c 3.1525000000000003,-1.635 1.94,5.7225 5.229450106879512,11.272262833787668 L 0 109 " fill="none" stroke="black" stroke-width="0.1" style="vector-effect:non-scaling-stroke;" /></g></g><g><g><path d="M 0 0  L 0 27.250000  c 6.923331721334823,-0.0 10.725267862161813,1.3625 9.027767862161813,-1.3271165962349212&#10;c -1.4549999999999998,-3.0276895327963356 0,-6.381553138845364 3.097232137838187,-6.381553138845364&#10;c 2.1486705734962523,0 3.6036705734962524,2.8548557475142284 2.1486705734962523,2.988755421402158&#10;c -1.4549999999999998,3.5425 5.0925,2.18 9.976329426503748,4.719914313678127 c 1.7735176289995658,0.0 11.295904296598943,-1.3625 9.598404296598943,3.1467764326019045&#10;c -1.4549999999999998,2.9630431209884893 0,5.000766785707783 2.526595703401057,5.000766785707783&#10;c 2.8110830389448083,0 4.266083038944808,-6.0474820896869765 2.8110830389448083,-6.379738033694032&#10;c -1.4549999999999998,-3.5425 5.0925,-2.18 9.313916961055192,-1.7678051846156553 c 3.874457788700563,0.0 12.004753000533109,-1.3625 10.307253000533109,1.5222996485074127&#10;c -1.4549999999999998,1.2401928527410284 0,5.836335296753481 1.8177469994668911,5.836335296753481&#10;c 2.8340847792057478,0 4.289084779205748,-0.77641562117446 2.8340847792057478,-2.205654210998075&#10;c -1.4549999999999998,-3.5425 5.0925,-2.18 9.290915220794252,-5.152980734262819 c 2.909927800820469,0.0 10.311282791725997,-1.3625 8.613782791725997,3.8358853682063936&#10;c -1.4549999999999998,2.4789968224769754 0,4.0348506696751665 3.5112172082740027,4.0348506696751665&#10;c 2.619108047966602,0 4.074108047966602,-1.1065061778662022 2.619108047966602,-2.7276087788383814&#10;c -1.4549999999999998,-3.5425 5.0925,-2.18 9.505891952033398,-5.143127259043179 c 1.4379030737673002,-0.0 10.880653944312044,1.3625 9.183153944312044,-4.79545616053687&#10;c -1.4549999999999998,-0.7416684366420303 0,-2.6893374242626837 2.9418460556879555,-2.6893374242626837&#10;c 3.7797227328116385,0 5.234722732811639,1.5636972957817294 3.7797227328116385,3.856319645470151&#10;c -1.4549999999999998,3.5425 5.0925,2.18 8.345277267188361,3.6284739393294023 c 2.377906393770796,0.0 10.68440515365205,-1.3625 8.98690515365205,1.8941801193125105&#10;c -1.4549999999999998,2.076551318904442 0,6.6639554170378705 3.1380948463479506,6.6639554170378705&#10;c 3.8118815023386414,0 5.2668815023386415,-3.5431694422460076 3.8118815023386414,-3.6510107436893113&#10;c -1.4549999999999998,-3.5425 5.0925,-2.18 8.313118497661359,-4.90712479266107 c 5.92292164622235,0.0 10.105324122295572,-1.3625 8.407824122295573,4.686784769860098&#10;c -1.4549999999999998,2.439373693690194 0,4.3407643802808815 3.7171758777044275,4.3407643802808815&#10;c 2.7809079819554476,0 4.235907981955448,-3.1243054407670203 2.7809079819554476,-3.5883729563792626&#10;c -1.4549999999999998,-3.5425 5.0925,-2.18 9.344092018044552,-5.439176193761717 c 4.911582003902093,0.0 11.488224632587174,-1.3625 9.790724632587175,2.924386448570961&#10;c -1.4549999999999998,4.849966597351258 0,5.896913169955286 2.3342753674128254,5.896913169955286&#10;c 3.745086524372134,0 5.200086524372134,-1.5105948729346765 3.745086524372134,-4.10173558923316&#10;c -1.4549999999999998,-3.5425 5.0925,-2.18 8.379913475627866,-4.719564029293087 L 194 0 " fill="none" stroke="black" stroke-width="0.1" style="vector-effect:non-scaling-stroke;" /></g><g><path d="M 0 0  L 0 54.500000  c 7.00417855230513,-0.0 9.942885095185792,1.3625 8.245385095185792,-5.846661498611098&#10;c -1.4549999999999998,-0.3793778442841237 0,-1.6553357863509035 3.8796149048142077,-1.6553357863509035&#10;c 3.6154324667432007,0 5.070432466743201,3.753077950723127 3.6154324667432007,5.615849860041324&#10;c -1.4549999999999998,3.5425 5.0925,2.18 8.5095675332568,1.8861474249206776 c 5.166284700747863,0.0 11.286111209777818,-1.3625 9.588611209777818,0.9836086750787235&#10;c -1.4549999999999998,4.28691464920738 0,6.9738336977131565 2.5363887902221816,6.9738336977131565&#10;c 2.226769715972541,0 3.681769715972541,-1.5166571420196753 2.226769715972541,-5.420125019824361&#10;c -1.4549999999999998,-3.5425 5.0925,-2.18 9.89823028402746,-2.537317352967519 c 1.8431161389413875,0.0 10.302083058255507,-1.3625 8.604583058255507,2.97828307887845&#10;c -1.4549999999999998,5.137353676541858 0,5.614132589651469 3.520416941744493,5.614132589651469&#10;c 2.118358440807606,0 3.5733584408076062,-5.738052254823898 2.118358440807606,-7.251034753225049&#10;c -1.4549999999999998,-3.5425 5.0925,-2.18 10.006641559192394,-1.3413809153048692 c 3.2716518960026746,-0.0 10.0307005508175,1.3625 8.3332005508175,-5.46160815981471&#10;c -1.4549999999999998,-1.7009404408472566 0,-2.0419887982181937 3.7917994491825002,-2.0419887982181937&#10;c 1.855773836588373,0 3.310773836588373,3.4604035290239725 1.855773836588373,3.6984721476906137&#10;c -1.4549999999999998,3.5425 5.0925,2.18 10.269226163411627,3.80512481034229 c 2.852673727886468,0.0 11.659543905282048,-1.3625 9.962043905282048,2.5547841437642016&#10;c -1.4549999999999998,2.2883224978022754 0,6.36530901354274 2.162956094717952,6.36530901354274&#10;c 2.71196135513215,0 4.16696135513215,-3.2326296921209208 2.71196135513215,-5.215690107268106&#10;c -1.4549999999999998,-3.5425 5.0925,-2.18 9.41303864486785,-3.7044030500388363 c 1.8295606089575496,-0.0 10.84487658729504,1.3625 9.14737658729504,-4.147350145001477&#10;c -1.4549999999999998,-3.069532748046744 0,-4.411803701374771 2.9776234127049594,-4.411803701374771&#10;c 1.7970117709524924,0 3.2520117709524925,3.975256504342199 1.7970117709524924,4.223814653430933&#10;c -1.4549999999999998,3.5425 5.0925,2.18 10.327988229047508,4.335339192945314 c 1.643117901954676,0.0 11.218732530840935,-1.3625 9.521232530840935,0.2860673141983754&#10;c -1.4549999999999998,5.014127653140921 0,7.793862752642118 2.603767469159065,7.793862752642118&#10;c 3.5326164066488897,0 4.98761640664889,-1.6830494454917166 3.5326164066488897,-6.414089097948403&#10;c -1.4549999999999998,-3.5425 5.0925,-2.18 8.59238359335111,-1.6658409688920903 c 4.193960243835793,-0.0 9.950074728204354,1.3625 8.252574728204355,-3.722798716190531&#10;c -1.4549999999999998,-2.1724983504825652 0,-4.479427768953285 3.8724252717956453,-4.479427768953285&#10;c 1.947423081097126,0 3.402423081097126,2.723486578900471 1.947423081097126,5.66915836414335&#10;c -1.4549999999999998,3.5425 5.0925,2.18 10.177576918902874,2.5330681210004666 L 194 0 " fill="none" stroke="black" stroke-width="0.1" style="vector-effect:non-scaling-stroke;" /></g><g><path d="M 0 0  L 0 81.750000  c 2.016203346048579,-0.0 10.83056557227273,1.3625 9.13306557227273,-4.7573256317115&#10;c -1.4549999999999998,-1.9315427295784446 0,-4.129985010635203 2.9919344277272693,-4.129985010635203&#10;c 2.4774073133885928,0 3.932407313388593,3.57761075707439 2.4774073133885928,4.850178825972814&#10;c -1.4549999999999998,3.5425 5.0925,2.18 9.647592686611407,4.037131816373889 c 6.326534135631937,-0.0 11.046530363145482,1.3625 9.349030363145483,-4.284037960011879&#10;c -1.4549999999999998,-3.6269137485785268 0,-4.061882549821453 2.7759696368545175,-4.061882549821453&#10;c 3.5261108431091515,0 4.9811108431091515,2.7618513403894265 3.5261108431091515,5.2149293194323345&#10;c -1.4549999999999998,3.5425 5.0925,2.18 8.598889156890849,3.130991190400998 c 1.7480568775181489,0.0 10.130055111575919,-1.3625 8.432555111575919,1.2307431675057254&#10;c -1.4549999999999998,5.5676343427074535 0,5.988461832702826 3.692444888424081,5.988461832702826&#10;c 2.2406773082068305,0 3.6956773082068306,-3.856992648299917 2.2406773082068305,-4.133443737131925&#10;c -1.4549999999999998,-3.5425 5.0925,-2.18 9.88432269179317,-3.085761263076626 c 6.854343785290998,0.0 11.230001826606205,-1.3625 9.532501826606206,1.9161891139092582&#10;c -1.4549999999999998,2.9133231270482405 0,6.701228747748143 2.5924981733937944,6.701228747748143&#10;c 2.377999441161691,0 3.8329994411616912,-1.9167434596999962 2.377999441161691,-6.170576530990204&#10;c -1.4549999999999998,-3.5425 5.0925,-2.18 9.747000558838309,-2.446841330667197 c 3.5343613963135954,0.0 12.084014568880125,-1.3625 10.386514568880125,1.0298505127834547&#10;c -1.4549999999999998,4.234156262265104 0,6.791276280310605 1.7384854311198747,6.791276280310605&#10;c 3.1618516597748645,0 4.616851659774865,-4.2219825942405915 3.1618516597748645,-7.201645267856779&#10;c -1.4549999999999998,-3.5425 5.0925,-2.18 8.963148340225136,-0.6194815252372807 c 3.2758357085337297,-0.0 10.097100671817051,1.3625 8.399600671817051,-0.0029815264902556217&#10;c -1.4549999999999998,-4.575521619364389 0,-8.436917799323693 3.7253993281829487,-8.436917799323693&#10;c 3.766762997697434,0 5.221762997697434,3.4046247641252627 3.766762997697434,4.306321391801717&#10;c -1.4549999999999998,3.5425 5.0925,2.18 8.358237002302566,4.133577934012232 c 3.426351850006007,-0.0 10.305372678199497,1.3625 8.607872678199497,-5.34466963492944&#10;c -1.4549999999999998,-1.8096975708574192 0,-3.3474668892703594 3.517127321800503,-3.3474668892703594&#10;c 1.8203907295904038,0 3.275390729590404,2.597543628476403 1.8203907295904038,6.750083447199264&#10;c -1.4549999999999998,3.5425 5.0925,2.18 10.304609270409596,1.9420530770005353 c 5.46441071122894,0.0 10.14046854910606,-1.3625 8.44296854910606,3.2749843199225466&#10;c -1.4549999999999998,3.925248384985357 0,4.16320287607482 3.6820314508939394,4.16320287607482&#10;c 2.9291003045629918,0 4.384100304562992,-6.33471935167865 2.9291003045629918,-6.630527898326053&#10;c -1.4549999999999998,-3.5425 5.0925,-2.18 9.195899695437008,-0.8076592976713135 L 194 0 " fill="none" stroke="black" stroke-width="0.1" style="vector-effect:non-scaling-stroke;" /></g></g></svg>