<?xml version="1.0" encoding="utf-8"?>
<svg baseProfile="full" height="0" version="1.1" width="0" xmlns="http://www.w3.org/2000/svg" xmlns:ev="http://www.w3.org/2001/xml-events" xmlns:xlink="http://www.w3.org/1999/xlink"><defs><clipPath id="piece-mask-100-0" shape-rendering="crispEdges"><path d="M43 362 l-33 -3 0 -37 0 -37 25 -1 25 -2 15 -12 15 -12 0 -24 0 -24 -27 -11 -26 -10 -14 5 -14 6 -5 -13 -5 -13 9 -39 8 -40 34 -5 35 -5 -3 -36 -3 -36 22 -6 23 -6 19 16 18 17 -3 31 -3 30 52 -3 52 -2 3 52 3 52 25 6 25 6 0 29 0 30 -30 5 -30 5 -3 38 -3 37 -17 -1 -17 -1 -25 -7 -25 -7 0 -19 0 -20 -30 0 -30 0 -3 32 -3 31 -12 4 -12 3 -32 -3z" transform="translate(0.000000,37.000000) scale(0.100000,-0.100000)"/></clipPath><clipPath id="piece-mask-100-1" shape-rendering="crispEdges"><path d="M100 408 l0 -24 -12 -12 -12 -12 -38 0 -38 0 0 -51 0 -50 18 2 17 1 13 -1 12 -1 0 -25 0 -25 -14 0 -14 0 -11 -51 -11 -51 6 -9 5 -9 40 0 39 0 -6 -24 -6 -24 12 -22 11 -21 22 3 22 3 5 40 5 40 46 3 46 3 -16 47 -16 47 -8 12 -8 12 -14 -6 -15 -5 0 32 0 33 34 -6 34 -5 6 15 6 15 0 44 0 45 -8 -5 -8 -5 -50 7 -49 7 0 25 0 25 -23 3 -22 3 0 -23z" transform="translate(0.000000,43.000000) scale(0.100000,-0.100000)"/></clipPath><clipPath id="piece-mask-100-2" shape-rendering="crispEdges"><path d="M73 318 l2 -53 -33 3 -32 3 -7 -17 -6 -17 19 -14 19 -14 29 7 29 6 -6 -66 -6 -66 41 0 41 0 -7 -31 -6 -31 16 -15 16 -16 26 9 27 10 0 24 0 24 35 11 35 10 -3 143 -3 142 -114 0 -114 0 2 -52z" transform="translate(0.000000,37.000000) scale(0.100000,-0.100000)"/></clipPath><clipPath id="piece-mask-100-3" shape-rendering="crispEdges"><path d="M80 221 l0 -49 -14 -12 -15 -11 -23 3 -23 3 0 -25 0 -25 31 2 32 3 6 -23 6 -22 0 -27 0 -27 115 -3 115 -3 5 13 5 14 0 38 0 39 33 3 32 3 0 20 0 20 -24 -3 -24 -2 -13 11 -14 11 0 47 0 47 -39 -4 -40 -4 -3 -26 -3 -27 -37 -3 -38 -3 0 35 0 36 -35 0 -35 0 0 -49z" transform="translate(0.000000,27.000000) scale(0.100000,-0.100000)"/></clipPath><clipPath id="piece-mask-100-4" shape-rendering="crispEdges"><path d="M80 231 l0 -50 -37 -3 -38 -3 -3 -17 -3 -16 27 -14 27 -13 12 -46 11 -46 -3 -9 -3 -10 37 4 38 4 13 11 13 10 -3 26 -3 26 20 0 20 0 0 -25 0 -25 49 -12 49 -12 9 5 8 5 0 49 0 49 -12 8 -13 8 -20 0 -20 0 -3 18 -4 19 34 -4 33 -3 3 56 3 56 -40 -10 -40 -11 -3 -25 -3 -26 -28 -3 -28 -3 -15 12 -16 13 4 28 5 28 -39 0 -38 0 0 -49z" transform="translate(0.000000,28.000000) scale(0.100000,-0.100000)"/></clipPath><clipPath id="piece-mask-100-5" shape-rendering="crispEdges"><path d="M159 423 l-2 -8 -1 -30 -1 -30 -49 -3 -49 -3 7 -45 6 -44 -24 0 -24 0 -12 -14 -12 -15 4 -23 3 -23 10 2 10 2 6 -12 7 -12 7 -42 7 -42 46 -3 47 -3 -3 -24 -2 -24 11 -13 11 -14 19 0 19 0 16 25 16 25 -5 21 -6 22 45 -7 45 -6 -3 133 -3 132 -50 5 -50 5 0 35 0 35 -22 3 -23 3 -1 -8z" transform="translate(0.000000,43.000000) scale(0.100000,-0.100000)"/></clipPath><clipPath id="piece-mask-100-6" shape-rendering="crispEdges"><path d="M68 233 l-3 -58 -27 0 -26 0 -7 -7 -7 -6 7 -21 6 -21 9 5 9 5 8 -12 8 -13 10 -45 10 -45 24 -3 24 -4 24 13 25 13 -5 23 -4 23 17 5 17 5 17 -6 17 -6 -7 -20 -6 -20 13 -9 14 -9 27 0 27 0 5 8 5 8 -11 43 -11 44 -19 5 -18 4 0 19 0 19 19 0 19 0 14 23 15 22 5 38 4 37 -123 0 -122 0 -3 -57z" transform="translate(0.000000,29.000000) scale(0.100000,-0.100000)"/></clipPath><clipPath id="piece-mask-100-7" shape-rendering="crispEdges"><path d="M169 353 l-1 -8 1 -21 2 -21 -13 -11 -13 -10 -35 -4 -35 -3 -3 -37 -3 -38 -23 0 -22 0 -12 -12 -12 -12 0 -28 0 -29 22 -8 22 -8 11 -48 10 -48 48 -4 47 -4 0 33 0 33 9 14 9 14 27 -7 27 -7 -5 -19 -5 -19 12 -10 11 -9 41 -6 41 -7 12 55 12 55 14 -5 14 -6 7 26 6 25 -7 10 -6 11 -30 0 -29 0 0 44 0 45 -10 6 -11 7 -47 11 -47 12 0 25 0 25 -17 3 -18 3 -1 -8z" transform="translate(0.000000,36.000000) scale(0.100000,-0.100000)"/></clipPath><clipPath id="piece-mask-100-8" shape-rendering="crispEdges"><path d="M229 343 l-1 -8 1 -25 2 -26 -18 -17 -19 -16 -23 6 -22 6 3 36 3 36 -42 3 -43 3 0 -40 0 -41 -22 0 -23 0 -13 -9 -13 -8 3 -34 3 -34 33 -3 34 -3 -4 -50 -3 -49 43 0 42 0 0 -36 0 -35 38 3 37 3 3 27 3 28 37 1 37 1 8 -1 7 -1 0 15 0 14 11 51 11 50 14 0 14 0 0 25 0 25 -12 1 -13 1 -17 -1 -18 -2 0 49 0 50 -22 6 -23 6 -17 0 -18 0 -1 -7z" transform="translate(0.000000,35.000000) scale(0.100000,-0.100000)"/></clipPath><clipPath id="piece-mask-100-9" shape-rendering="crispEdges"><path d="M2 228 l3 -43 30 -5 30 -5 0 -30 0 -29 -25 -6 -25 -6 -3 -52 -3 -52 28 0 29 0 12 12 12 12 0 24 0 23 23 -3 22 -3 -3 -23 -3 -22 13 -4 13 -4 42 -6 42 -6 11 55 11 55 20 0 19 0 0 31 0 31 -30 -4 -29 -4 -6 14 -5 14 0 35 0 35 -32 -7 -33 -7 -8 -5 -8 -5 3 -15 3 -15 -17 -11 -16 -11 -27 12 -26 12 3 27 3 28 -38 3 -38 3 3 -43z" transform="translate(0.000000,27.000000) scale(0.100000,-0.100000)"/></clipPath><clipPath id="piece-mask-100-10" shape-rendering="crispEdges"><path d="M165 278 l-4 -13 -3 -30 -3 -30 -29 -3 -29 -4 -8 14 -9 13 0 28 0 27 -40 0 -40 0 0 -50 0 -50 29 0 30 0 6 -11 7 -10 -6 -25 -7 -26 -13 5 -14 6 -11 -44 -11 -44 0 -10 0 -11 35 0 35 0 5 23 6 23 -3 14 -3 15 23 3 22 3 0 -40 0 -41 24 -6 24 -6 19 4 18 4 -2 32 -1 33 -6 24 -6 25 -12 -3 -13 -2 -3 23 -4 23 12 15 12 14 24 0 24 0 -6 43 -7 42 -1 1 -1 1 -28 7 -27 6 -5 -12z" transform="translate(0.000000,29.000000) scale(0.100000,-0.100000)"/></clipPath><clipPath id="piece-mask-100-11" shape-rendering="crispEdges"><path d="M220 237 l0 -33 -12 -12 -12 -12 -17 0 -18 0 -6 20 -6 20 6 20 6 20 -45 0 -46 0 0 -47 0 -48 -9 -14 -9 -14 -20 5 -21 6 -5 -13 -5 -14 14 -11 15 -12 25 6 25 6 6 -15 6 -15 -10 -40 -10 -40 113 0 113 0 6 23 6 22 0 27 0 26 -35 -1 -35 -1 -12 12 -13 13 12 17 11 17 25 -3 25 -2 6 22 6 23 0 31 0 32 -22 6 -23 6 -17 0 -18 0 0 -33z" transform="translate(0.000000,27.000000) scale(0.100000,-0.100000)"/></clipPath><clipPath id="piece-mask-100-12" shape-rendering="crispEdges"><path d="M0 140 l0 -140 51 0 51 0 -7 28 -6 29 16 13 16 13 8 -9 9 -9 4 -19 3 -19 48 -12 47 -12 9 11 9 11 7 42 7 42 21 3 22 3 0 30 0 30 -30 0 -30 0 0 53 0 52 -127 0 -128 0 0 -140z" transform="translate(0.000000,28.000000) scale(0.100000,-0.100000)"/></clipPath><clipPath id="piece-mask-100-13" shape-rendering="crispEdges"><path d="M12 228 l3 -43 22 -3 23 -3 6 -24 6 -24 -21 -22 -20 -22 -15 6 -16 6 0 -33 0 -34 6 -16 6 -16 44 0 44 0 0 40 0 40 19 0 19 0 10 -13 11 -13 -5 -22 -6 -21 25 -6 25 -7 19 4 18 3 3 47 3 47 -33 3 -33 3 -3 34 -3 34 13 8 13 9 23 0 22 0 0 41 0 40 -42 -3 -43 -3 -1 -25 -1 -25 -1 -13 -2 -13 -27 3 -28 3 -3 38 -3 37 -40 0 -40 0 3 -42z" transform="translate(0.000000,27.000000) scale(0.100000,-0.100000)"/></clipPath><clipPath id="piece-mask-100-14" shape-rendering="crispEdges"><path d="M80 230 l0 -50 -12 -1 -13 -1 -23 2 -22 1 -6 -16 -7 -17 17 -16 16 -16 27 -1 28 0 1 -50 1 -50 39 0 39 0 0 35 0 35 25 0 25 0 0 -35 0 -35 48 -3 47 -3 0 130 0 131 -12 -1 -13 0 -20 -8 -20 -8 0 -24 0 -23 -27 -10 -26 -9 -16 16 -16 15 6 31 7 31 -47 0 -46 0 0 -50z" transform="translate(0.000000,28.000000) scale(0.100000,-0.100000)"/></clipPath><clipPath id="piece-mask-100-15" shape-rendering="crispEdges"><path d="M4 346 l-5 -14 3 -38 3 -39 30 0 30 0 0 -30 0 -30 -21 -3 -22 -3 -7 -37 -6 -37 -5 -18 -5 -17 40 0 40 0 3 -37 3 -38 17 -3 18 -3 15 15 15 15 0 32 0 32 48 -7 48 -6 -6 52 -5 53 -28 0 -28 0 -10 18 -11 18 6 16 6 16 35 -6 34 -6 3 10 3 9 -3 50 -4 50 -114 0 -115 0 -5 -14z" transform="translate(0.000000,36.000000) scale(0.100000,-0.100000)"/></clipPath><clipPath id="piece-mask-100-16" shape-rendering="crispEdges"><path d="M149 333 l-1 -8 1 -9 2 -10 -6 -23 -5 -23 -40 0 -39 0 -3 -57 -3 -58 -28 0 -27 1 0 -22 0 -22 14 -5 13 -5 12 -46 11 -46 124 0 123 0 -15 55 -15 55 -19 0 -18 0 0 9 0 9 15 12 14 12 21 -7 20 -6 6 15 6 16 -7 45 -6 46 -34 -7 -33 -6 -21 7 -21 6 0 40 0 39 -20 0 -20 0 -1 -7z" transform="translate(0.000000,34.000000) scale(0.100000,-0.100000)"/></clipPath><clipPath id="piece-mask-100-17" shape-rendering="crispEdges"><path d="M5 262 l-5 -14 0 -38 0 -38 14 -11 13 -11 24 2 24 3 0 -20 0 -20 -32 -3 -33 -3 0 -39 0 -38 -5 -14 -5 -13 126 2 127 2 9 9 9 9 2 44 2 44 -28 -3 -29 -3 -13 11 -14 11 5 13 5 13 24 -5 24 -4 6 25 6 24 -3 34 -3 34 -45 0 -45 0 -5 -40 -5 -40 -22 -3 -22 -3 -11 21 -12 22 6 23 6 23 -45 4 -45 3 -5 -13z" transform="translate(0.000000,28.000000) scale(0.100000,-0.100000)"/></clipPath><clipPath id="piece-mask-100-18" shape-rendering="crispEdges"><path d="M72 315 l5 -55 -11 -1 -11 -1 -10 -3 -10 -2 -17 -1 -18 -2 0 -14 0 -14 15 -6 15 -5 13 5 14 5 11 -14 12 -14 -2 -49 -3 -49 35 -5 35 -5 -3 -34 -4 -34 14 -8 13 -9 17 0 17 0 15 15 15 16 -5 13 -5 14 23 7 23 7 27 11 26 11 6 29 6 29 0 35 0 35 -28 -6 -27 -7 -19 14 -19 14 7 18 6 17 30 -5 29 -6 7 10 6 10 -7 45 -6 44 -121 0 -120 0 4 -55z" transform="translate(0.000000,37.000000) scale(0.100000,-0.100000)"/></clipPath><clipPath id="piece-mask-100-19" shape-rendering="crispEdges"><path d="M88 308 l-3 -33 -42 -3 -43 -3 0 -135 0 -134 33 0 33 0 19 14 18 13 -5 21 -6 21 12 10 12 10 13 -9 14 -8 1 -28 1 -29 40 -6 40 -7 10 4 10 4 -3 45 -4 45 17 -6 16 -7 20 22 21 22 -6 24 -6 24 -23 3 -22 3 -3 25 -3 25 -4 22 -5 22 -28 -8 -27 -7 -18 4 -19 4 6 21 5 21 -11 13 -10 13 -24 0 -23 0 -3 -32z" transform="translate(0.000000,34.000000) scale(0.100000,-0.100000)"/></clipPath><clipPath id="piece-mask-100-20" shape-rendering="crispEdges"><path d="M77 353 l-7 -6 0 -29 0 -29 -16 -24 -16 -25 -19 0 -19 0 0 -20 0 -20 15 0 15 0 11 -27 11 -28 1 -32 1 -33 46 0 47 0 -5 -28 -4 -28 16 -13 15 -12 28 3 28 3 3 26 3 25 42 11 42 12 0 53 0 53 -9 13 -8 13 -14 -5 -14 -5 -15 5 -15 6 0 14 0 14 13 1 12 2 23 2 23 2 2 4 3 4 -4 53 -4 52 -112 0 -113 0 -6 -7z" transform="translate(0.000000,36.000000) scale(0.100000,-0.100000)"/></clipPath><clipPath id="piece-mask-100-21" shape-rendering="crispEdges"><path d="M80 303 l2 -48 -1 -12 -1 -12 -35 6 -35 6 -6 -16 -6 -16 11 -18 10 -18 28 0 28 0 5 -50 5 -50 30 -2 30 -1 12 -1 12 -1 3 -32 3 -33 30 0 30 0 0 20 0 20 43 9 42 9 0 53 0 54 35 0 36 0 8 23 8 22 -5 15 -6 15 -10 7 -11 7 -22 -5 -22 -6 -7 26 -6 26 4 25 5 25 -124 0 -124 0 1 -47z" transform="translate(0.000000,35.000000) scale(0.100000,-0.100000)"/></clipPath><clipPath id="piece-mask-100-22" shape-rendering="crispEdges"><path d="M100 300 l0 -40 -45 0 -45 0 0 -44 0 -44 20 5 20 5 15 -12 15 -12 0 -23 0 -23 -26 -17 -26 -17 -14 6 -15 6 3 -43 3 -42 123 -3 122 -3 0 28 0 28 -6 22 -6 23 -32 -3 -31 -2 0 25 0 25 23 -3 23 -3 15 11 14 12 0 49 0 49 -37 0 -38 0 -14 9 -14 9 7 17 6 18 -11 13 -11 14 -19 0 -19 0 0 -40z" transform="translate(0.000000,34.000000) scale(0.100000,-0.100000)"/></clipPath><clipPath id="piece-mask-100-23" shape-rendering="crispEdges"><path d="M176 334 l-6 -16 0 -30 0 -30 -42 4 -43 3 -2 -15 -2 -15 -6 -38 -6 -38 -26 3 -25 3 -11 -17 -12 -17 13 -13 12 -12 36 1 37 1 -7 -51 -6 -52 120 3 120 3 -6 27 -7 27 -8 23 -9 22 -10 0 -10 0 0 23 0 23 28 -1 27 0 3 57 3 57 -38 7 -38 7 -12 9 -12 9 6 16 6 15 -14 9 -14 9 -16 0 -17 0 -6 -16z" transform="translate(0.000000,35.000000) scale(0.100000,-0.100000)"/></clipPath><clipPath id="piece-mask-100-24" shape-rendering="crispEdges"><path d="M68 293 l-3 -58 -33 3 -34 4 4 -19 4 -18 21 2 21 2 12 -14 12 -15 -4 -53 -4 -52 43 4 43 3 0 -28 0 -29 9 -13 8 -14 29 4 29 3 5 40 5 40 41 -3 41 -3 -1 53 -1 53 -28 0 -27 1 -16 16 -17 16 7 17 6 16 22 -1 23 -2 13 1 12 1 0 50 0 50 -9 0 -10 0 -5 -9 -6 -8 -31 -7 -31 -6 5 -15 6 -14 -15 -16 -15 -15 -17 0 -17 0 -13 9 -14 8 4 34 3 34 -37 3 -37 3 -3 -58z" transform="translate(0.000000,35.000000) scale(0.100000,-0.100000)"/></clipPath><clipPath id="piece-mask-100-25" shape-rendering="crispEdges"><path d="M103 337 l-7 -12 2 -22 3 -22 -20 -10 -20 -11 -30 0 -31 0 0 -130 0 -130 123 0 122 0 -3 45 -4 45 15 -6 15 -6 26 17 26 17 0 23 0 23 -15 12 -15 12 -20 -5 -20 -5 0 50 0 50 -13 -5 -12 -5 -40 7 -40 6 -1 20 -2 20 -1 11 -1 12 -15 5 -14 6 -8 -12z" transform="translate(0.000000,35.000000) scale(0.100000,-0.100000)"/></clipPath><clipPath id="piece-mask-100-26" shape-rendering="crispEdges"><path d="M7 353 l-7 -6 0 -31 0 -31 9 -14 9 -13 18 6 19 6 11 -8 10 -7 6 -15 5 -15 -8 -22 -8 -23 -36 0 -35 0 0 -49 0 -50 38 -3 37 -3 -3 -28 -3 -27 26 -12 27 -12 16 11 17 10 0 18 0 18 46 13 46 14 -11 47 -11 48 -8 13 -8 12 -9 -5 -9 -5 -6 21 -7 21 7 6 7 7 26 0 27 0 3 58 3 57 -119 0 -119 0 -6 -7z" transform="translate(0.000000,36.000000) scale(0.100000,-0.100000)"/></clipPath><clipPath id="piece-mask-100-27" shape-rendering="crispEdges"><path d="M114 434 l-11 -5 4 -22 5 -23 -24 -12 -23 -12 -32 -2 -33 -2 0 -37 0 -37 5 -14 6 -14 29 4 30 4 0 -31 0 -31 -19 0 -19 0 -10 -47 -11 -47 5 -8 5 -8 40 0 39 0 0 -35 0 -34 21 -12 21 -11 11 11 11 11 1 28 2 27 34 3 34 4 11 9 11 9 -12 47 -12 48 -27 13 -27 14 3 16 3 17 38 3 37 3 0 49 0 50 -27 5 -28 6 -23 5 -24 5 6 23 6 24 -16 6 -16 6 -6 -1 -7 -1 -11 -4z" transform="translate(0.000000,44.000000) scale(0.100000,-0.100000)"/></clipPath><clipPath id="piece-mask-100-28" shape-rendering="crispEdges"><path d="M80 311 l0 -39 -6 -15 -6 -15 -34 5 -34 6 0 -33 0 -32 15 5 14 6 8 -12 8 -12 15 -45 15 -45 48 -3 48 -3 -6 -20 -6 -19 6 -20 6 -20 18 0 17 0 12 12 12 12 0 34 0 35 36 -6 36 -6 -6 31 -6 30 0 14 0 14 -25 10 -25 10 0 28 0 28 12 12 12 12 23 0 23 0 0 38 0 38 -42 -5 -41 -6 -1 -27 -2 -28 -11 -11 -11 -11 -21 11 -21 12 0 34 0 35 -40 0 -40 0 0 -39z" transform="translate(0.000000,35.000000) scale(0.100000,-0.100000)"/></clipPath><clipPath id="piece-mask-100-29" shape-rendering="crispEdges"><path d="M227 260 l5 -20 -16 -25 -16 -25 -19 0 -19 0 -11 14 -11 13 2 24 3 24 -37 3 -37 3 2 -58 2 -58 -24 3 -24 2 -13 -11 -14 -11 0 -9 0 -9 18 0 19 0 16 -60 17 -60 120 0 120 0 0 134 0 134 -22 6 -23 6 -22 0 -21 0 5 -20z" transform="translate(0.000000,28.000000) scale(0.100000,-0.100000)"/></clipPath><clipPath id="piece-mask-100-30" shape-rendering="crispEdges"><path d="M101 346 l-12 -14 7 -26 6 -26 -51 0 -51 0 0 -136 0 -135 43 3 42 3 3 33 3 32 23 0 24 0 10 -13 11 -13 -5 -21 -6 -20 19 -5 18 -5 31 9 31 8 -11 49 -10 50 -25 3 -26 3 0 30 0 30 25 1 25 1 13 1 12 2 0 52 0 51 -5 -5 -5 -5 -47 12 -48 12 -5 23 -6 24 -10 3 -11 4 -12 -15z" transform="translate(0.000000,36.000000) scale(0.100000,-0.100000)"/></clipPath><clipPath id="piece-mask-100-31" shape-rendering="crispEdges"><path d="M230 329 l0 -30 -15 -15 -15 -15 -18 3 -17 3 -3 38 -3 37 -40 0 -39 0 0 -45 0 -45 -12 -2 -13 -1 -25 -1 -25 -1 0 -30 0 -30 26 -3 27 -3 8 -47 7 -47 -1 -10 -2 -10 44 3 45 4 3 -39 3 -38 28 -3 27 -3 2 13 1 13 1 25 1 25 51 3 52 3 -10 41 -9 41 5 14 5 13 14 -6 14 -5 26 10 27 11 0 24 0 24 -15 12 -15 12 -25 2 -25 1 0 36 0 37 -22 6 -23 6 -22 0 -23 0 0 -31z" transform="translate(0.000000,36.000000) scale(0.100000,-0.100000)"/></clipPath></defs></svg>