<?xml version="1.0" standalone="no"?>
<!DOCTYPE svg PUBLIC "-//W3C//DTD SVG 20010904//EN"
 "http://www.w3.org/TR/2001/REC-SVG-20010904/DTD/svg10.dtd">
<svg version="1.0" xmlns="http://www.w3.org/2000/svg"
 width="32.000000pt" height="28.000000pt" viewBox="0 0 32.000000 28.000000"
 preserveAspectRatio="xMidYMid meet">
<metadata>
Created by potrace 1.16, written by Peter Selinger 2001-2019
</metadata>
<g transform="translate(0.000000,28.000000) scale(0.100000,-0.100000)"
fill="#000000" stroke="none">
<path d="M0 140 l0 -140 51 0 51 0 -7 28 -6 29 16 13 16 13 8 -9 9 -9 4 -19 3
-19 48 -12 47 -12 9 11 9 11 7 42 7 42 21 3 22 3 0 30 0 30 -30 0 -30 0 0 53
0 52 -127 0 -128 0 0 -140z"/>
</g>
</svg>
