<?xml version="1.0" standalone="no"?>
<!DOCTYPE svg PUBLIC "-//W3C//DTD SVG 20010904//EN"
 "http://www.w3.org/TR/2001/REC-SVG-20010904/DTD/svg10.dtd">
<svg version="1.0" xmlns="http://www.w3.org/2000/svg"
 width="43.000000pt" height="37.000000pt" viewBox="0 0 43.000000 37.000000"
 preserveAspectRatio="xMidYMid meet">
<metadata>
Created by potrace 1.16, written by Peter Selinger 2001-2019
</metadata>
<g transform="translate(0.000000,37.000000) scale(0.100000,-0.100000)"
fill="#000000" stroke="none">
<path d="M80 315 l0 -55 -35 0 -36 0 -6 -16 -6 -16 9 -27 10 -26 29 0 30 -1 5
-49 5 -50 42 -3 42 -3 3 -32 3 -32 40 0 40 0 3 22 3 21 40 7 39 7 0 54 0 54
35 0 35 0 10 26 10 25 -6 25 -6 24 -24 6 -23 6 -10 -6 -10 -6 -6 20 -6 20 6
30 7 30 -136 0 -136 0 0 -55z"/>
</g>
</svg>
