<?xml version="1.0" standalone="no"?>
<!DOCTYPE svg PUBLIC "-//W3C//DTD SVG 20010904//EN"
 "http://www.w3.org/TR/2001/REC-SVG-20010904/DTD/svg10.dtd">
<svg version="1.0" xmlns="http://www.w3.org/2000/svg"
 width="41.000000pt" height="35.000000pt" viewBox="0 0 41.000000 35.000000"
 preserveAspectRatio="xMidYMid meet">
<metadata>
Created by potrace 1.16, written by Peter Selinger 2001-2019
</metadata>
<g transform="translate(0.000000,35.000000) scale(0.100000,-0.100000)"
fill="#000000" stroke="none">
<path d="M80 303 l2 -48 -1 -12 -1 -12 -35 6 -35 6 -6 -16 -6 -16 11 -18 10
-18 28 0 28 0 5 -50 5 -50 30 -2 30 -1 12 -1 12 -1 3 -32 3 -33 30 0 30 0 0
20 0 20 43 9 42 9 0 53 0 54 35 0 36 0 8 23 8 22 -5 15 -6 15 -10 7 -11 7 -22
-5 -22 -6 -7 26 -6 26 4 25 5 25 -124 0 -124 0 1 -47z"/>
</g>
</svg>
