<?xml version="1.0" standalone="no"?>
<!DOCTYPE svg PUBLIC "-//W3C//DTD SVG 20010904//EN"
 "http://www.w3.org/TR/2001/REC-SVG-20010904/DTD/svg10.dtd">
<svg version="1.0" xmlns="http://www.w3.org/2000/svg"
 width="39.000000pt" height="37.000000pt" viewBox="0 0 39.000000 37.000000"
 preserveAspectRatio="xMidYMid meet">
<metadata>
Created by potrace 1.16, written by Peter Selinger 2001-2019
</metadata>
<g transform="translate(0.000000,37.000000) scale(0.100000,-0.100000)"
fill="#000000" stroke="none">
<path d="M225 360 l-6 -10 6 -21 7 -20 -12 -14 -12 -15 -20 0 -19 0 3 38 3 37
-52 3 -53 3 0 -40 0 -41 -22 0 -23 0 -13 -9 -13 -8 3 -44 3 -44 34 -3 34 -3
-6 -50 -6 -49 44 0 45 0 0 -36 0 -35 48 3 47 3 3 27 3 28 45 0 44 0 0 15 0 14
11 51 11 50 14 0 14 0 0 34 0 35 -20 6 -20 6 -10 -6 -10 -6 0 49 0 50 -22 6
-23 6 -27 0 -27 0 -6 -10z"/>
</g>
</svg>
