<?xml version="1.0" standalone="no"?>
<!DOCTYPE svg PUBLIC "-//W3C//DTD SVG 20010904//EN"
 "http://www.w3.org/TR/2001/REC-SVG-20010904/DTD/svg10.dtd">
<svg version="1.0" xmlns="http://www.w3.org/2000/svg"
 width="37.000000pt" height="35.000000pt" viewBox="0 0 37.000000 35.000000"
 preserveAspectRatio="xMidYMid meet">
<metadata>
Created by potrace 1.16, written by Peter Selinger 2001-2019
</metadata>
<g transform="translate(0.000000,35.000000) scale(0.100000,-0.100000)"
fill="#000000" stroke="none">
<path d="M229 343 l-1 -8 1 -25 2 -26 -18 -17 -19 -16 -23 6 -22 6 3 36 3 36
-42 3 -43 3 0 -40 0 -41 -22 0 -23 0 -13 -9 -13 -8 3 -34 3 -34 33 -3 34 -3
-4 -50 -3 -49 43 0 42 0 0 -36 0 -35 38 3 37 3 3 27 3 28 37 1 37 1 8 -1 7 -1
0 15 0 14 11 51 11 50 14 0 14 0 0 25 0 25 -12 1 -13 1 -17 -1 -18 -2 0 49 0
50 -22 6 -23 6 -17 0 -18 0 -1 -7z"/>
</g>
</svg>
