<?xml version="1.0" standalone="no"?>
<!DOCTYPE svg PUBLIC "-//W3C//DTD SVG 20010904//EN"
 "http://www.w3.org/TR/2001/REC-SVG-20010904/DTD/svg10.dtd">
<svg version="1.0" xmlns="http://www.w3.org/2000/svg"
 width="33.000000pt" height="36.000000pt" viewBox="0 0 33.000000 36.000000"
 preserveAspectRatio="xMidYMid meet">
<metadata>
Created by potrace 1.16, written by Peter Selinger 2001-2019
</metadata>
<g transform="translate(0.000000,36.000000) scale(0.100000,-0.100000)"
fill="#000000" stroke="none">
<path d="M144 345 l-6 -14 6 -10 6 -9 -6 -16 -6 -16 -39 0 -38 0 -3 -57 -3
-58 -28 3 -27 3 0 -35 0 -34 14 -5 13 -5 12 -46 11 -46 135 0 135 0 0 5 0 5
-17 60 -16 60 -15 0 -15 0 7 7 7 7 27 1 27 0 3 24 4 24 -7 45 -7 44 -38 -6
-38 -6 -16 6 -16 6 0 39 0 39 -30 0 -31 0 -5 -15z"/>
</g>
</svg>
