<?xml version="1.0" standalone="no"?>
<!DOCTYPE svg PUBLIC "-//W3C//DTD SVG 20010904//EN"
 "http://www.w3.org/TR/2001/REC-SVG-20010904/DTD/svg10.dtd">
<svg version="1.0" xmlns="http://www.w3.org/2000/svg"
 width="31.000000pt" height="34.000000pt" viewBox="0 0 31.000000 34.000000"
 preserveAspectRatio="xMidYMid meet">
<metadata>
Created by potrace 1.16, written by Peter Selinger 2001-2019
</metadata>
<g transform="translate(0.000000,34.000000) scale(0.100000,-0.100000)"
fill="#000000" stroke="none">
<path d="M149 333 l-1 -8 1 -9 2 -10 -6 -23 -5 -23 -40 0 -39 0 -3 -57 -3 -58
-28 0 -27 1 0 -22 0 -22 14 -5 13 -5 12 -46 11 -46 124 0 123 0 -15 55 -15 55
-19 0 -18 0 0 9 0 9 15 12 14 12 21 -7 20 -6 6 15 6 16 -7 45 -6 46 -34 -7
-33 -6 -21 7 -21 6 0 40 0 39 -20 0 -20 0 -1 -7z"/>
</g>
</svg>
