<?xml version="1.0" standalone="no"?>
<!DOCTYPE svg PUBLIC "-//W3C//DTD SVG 20010904//EN"
 "http://www.w3.org/TR/2001/REC-SVG-20010904/DTD/svg10.dtd">
<svg version="1.0" xmlns="http://www.w3.org/2000/svg"
 width="26.000000pt" height="31.000000pt" viewBox="0 0 26.000000 31.000000"
 preserveAspectRatio="xMidYMid meet">
<metadata>
Created by potrace 1.16, written by Peter Selinger 2001-2019
</metadata>
<g transform="translate(0.000000,31.000000) scale(0.100000,-0.100000)"
fill="#000000" stroke="none">
<path d="M166 299 l-5 -14 -3 -30 -3 -30 -19 -3 -19 -4 -8 14 -9 13 0 28 0 27
-50 0 -50 0 0 -59 0 -60 32 -3 31 -3 5 -13 4 -13 -20 -6 -20 -5 -11 -43 -11
-44 0 -20 0 -21 44 0 44 0 6 16 6 16 0 24 0 24 10 0 10 0 0 -40 0 -40 24 -6
24 -6 28 4 29 3 -1 40 0 40 -7 28 -7 27 -15 0 -15 0 0 13 0 13 12 12 12 12 24
0 24 0 -7 53 -7 52 -2 2 -1 1 -37 7 -38 7 -4 -13z"/>
</g>
</svg>
