<?xml version="1.0" standalone="no"?>
<!DOCTYPE svg PUBLIC "-//W3C//DTD SVG 20010904//EN"
 "http://www.w3.org/TR/2001/REC-SVG-20010904/DTD/svg10.dtd">
<svg version="1.0" xmlns="http://www.w3.org/2000/svg"
 width="24.000000pt" height="29.000000pt" viewBox="0 0 24.000000 29.000000"
 preserveAspectRatio="xMidYMid meet">
<metadata>
Created by potrace 1.16, written by Peter Selinger 2001-2019
</metadata>
<g transform="translate(0.000000,29.000000) scale(0.100000,-0.100000)"
fill="#000000" stroke="none">
<path d="M165 278 l-4 -13 -3 -30 -3 -30 -29 -3 -29 -4 -8 14 -9 13 0 28 0 27
-40 0 -40 0 0 -50 0 -50 29 0 30 0 6 -11 7 -10 -6 -25 -7 -26 -13 5 -14 6 -11
-44 -11 -44 0 -10 0 -11 35 0 35 0 5 23 6 23 -3 14 -3 15 23 3 22 3 0 -40 0
-41 24 -6 24 -6 19 4 18 4 -2 32 -1 33 -6 24 -6 25 -12 -3 -13 -2 -3 23 -4 23
12 15 12 14 24 0 24 0 -6 43 -7 42 -1 1 -1 1 -28 7 -27 6 -5 -12z"/>
</g>
</svg>
