<?xml version="1.0" standalone="no"?>
<!DOCTYPE svg PUBLIC "-//W3C//DTD SVG 20010904//EN"
 "http://www.w3.org/TR/2001/REC-SVG-20010904/DTD/svg10.dtd">
<svg version="1.0" xmlns="http://www.w3.org/2000/svg"
 width="30.000000pt" height="30.000000pt" viewBox="0 0 30.000000 30.000000"
 preserveAspectRatio="xMidYMid meet">
<metadata>
Created by potrace 1.16, written by Peter Selinger 2001-2019
</metadata>
<g transform="translate(0.000000,30.000000) scale(0.100000,-0.100000)"
fill="#000000" stroke="none">
<path d="M6 285 l-6 -17 0 -47 0 -47 12 -12 12 -12 29 0 28 0 -6 -10 -6 -10
-30 0 -29 0 0 -34 0 -34 -6 -28 -6 -29 137 1 137 2 10 10 10 10 2 54 1 53 -32
0 -31 0 -8 7 -7 8 26 0 27 0 5 23 6 24 -3 44 -3 44 -55 0 -55 0 -3 -35 -3 -35
-10 -10 -10 -10 -14 19 -14 18 6 29 6 29 -34 0 -34 0 -21 6 -21 6 -7 -17z"/>
</g>
</svg>
