<?xml version="1.0" standalone="no"?>
<!DOCTYPE svg PUBLIC "-//W3C//DTD SVG 20010904//EN"
 "http://www.w3.org/TR/2001/REC-SVG-20010904/DTD/svg10.dtd">
<svg version="1.0" xmlns="http://www.w3.org/2000/svg"
 width="28.000000pt" height="28.000000pt" viewBox="0 0 28.000000 28.000000"
 preserveAspectRatio="xMidYMid meet">
<metadata>
Created by potrace 1.16, written by Peter Selinger 2001-2019
</metadata>
<g transform="translate(0.000000,28.000000) scale(0.100000,-0.100000)"
fill="#000000" stroke="none">
<path d="M5 262 l-5 -14 0 -38 0 -38 14 -11 13 -11 24 2 24 3 0 -20 0 -20 -32
-3 -33 -3 0 -39 0 -38 -5 -14 -5 -13 126 2 127 2 9 9 9 9 2 44 2 44 -28 -3
-29 -3 -13 11 -14 11 5 13 5 13 24 -5 24 -4 6 25 6 24 -3 34 -3 34 -45 0 -45
0 -5 -40 -5 -40 -22 -3 -22 -3 -11 21 -12 22 6 23 6 23 -45 4 -45 3 -5 -13z"/>
</g>
</svg>
