<?xml version="1.0" standalone="no"?>
<!DOCTYPE svg PUBLIC "-//W3C//DTD SVG 20010904//EN"
 "http://www.w3.org/TR/2001/REC-SVG-20010904/DTD/svg10.dtd">
<svg version="1.0" xmlns="http://www.w3.org/2000/svg"
 width="26.000000pt" height="29.000000pt" viewBox="0 0 26.000000 29.000000"
 preserveAspectRatio="xMidYMid meet">
<metadata>
Created by potrace 1.16, written by Peter Selinger 2001-2019
</metadata>
<g transform="translate(0.000000,29.000000) scale(0.100000,-0.100000)"
fill="#000000" stroke="none">
<path d="M12 238 l3 -53 22 -3 21 -3 6 -15 6 -14 -16 -19 -16 -19 -19 5 -19 5
0 -45 0 -45 6 -16 6 -16 54 0 54 0 0 41 0 41 12 -4 13 -5 3 -31 3 -32 23 -6
24 -6 28 4 29 3 3 57 3 57 -33 3 -33 3 -3 24 -4 24 14 8 13 9 23 0 22 0 0 51
0 50 -52 -3 -53 -3 -1 -33 -1 -32 -6 -6 -6 -6 -16 5 -15 6 0 36 0 35 -51 0
-50 0 3 -52z"/>
</g>
</svg>
