<?xml version="1.0" standalone="no"?>
<!DOCTYPE svg PUBLIC "-//W3C//DTD SVG 20010904//EN"
 "http://www.w3.org/TR/2001/REC-SVG-20010904/DTD/svg10.dtd">
<svg version="1.0" xmlns="http://www.w3.org/2000/svg"
 width="24.000000pt" height="27.000000pt" viewBox="0 0 24.000000 27.000000"
 preserveAspectRatio="xMidYMid meet">
<metadata>
Created by potrace 1.16, written by Peter Selinger 2001-2019
</metadata>
<g transform="translate(0.000000,27.000000) scale(0.100000,-0.100000)"
fill="#000000" stroke="none">
<path d="M12 228 l3 -43 22 -3 23 -3 6 -24 6 -24 -21 -22 -20 -22 -15 6 -16 6
0 -33 0 -34 6 -16 6 -16 44 0 44 0 0 40 0 40 19 0 19 0 10 -13 11 -13 -5 -22
-6 -21 25 -6 25 -7 19 4 18 3 3 47 3 47 -33 3 -33 3 -3 34 -3 34 13 8 13 9 23
0 22 0 0 41 0 40 -42 -3 -43 -3 -1 -25 -1 -25 -1 -13 -2 -13 -27 3 -28 3 -3
38 -3 37 -40 0 -40 0 3 -42z"/>
</g>
</svg>
