<?xml version="1.0" standalone="no"?>
<!DOCTYPE svg PUBLIC "-//W3C//DTD SVG 20010904//EN"
 "http://www.w3.org/TR/2001/REC-SVG-20010904/DTD/svg10.dtd">
<svg version="1.0" xmlns="http://www.w3.org/2000/svg"
 width="33.000000pt" height="29.000000pt" viewBox="0 0 33.000000 29.000000"
 preserveAspectRatio="xMidYMid meet">
<metadata>
Created by potrace 1.16, written by Peter Selinger 2001-2019
</metadata>
<g transform="translate(0.000000,29.000000) scale(0.100000,-0.100000)"
fill="#000000" stroke="none">
<path d="M220 256 l0 -34 -16 -13 -16 -13 -8 14 -9 14 6 28 6 28 -57 0 -56 0
0 -44 0 -44 -6 -16 -6 -16 -23 6 -23 6 -7 -22 -7 -21 12 -14 12 -15 35 0 35 0
-6 -25 -6 -25 -6 -25 -6 -25 125 0 125 0 6 23 6 22 0 37 0 37 -40 3 -40 3 -3
10 -2 10 31 3 32 3 6 22 6 22 0 41 0 42 -22 6 -23 6 -27 0 -28 0 0 -34z"/>
</g>
</svg>
