<?xml version="1.0" standalone="no"?>
<!DOCTYPE svg PUBLIC "-//W3C//DTD SVG 20010904//EN"
 "http://www.w3.org/TR/2001/REC-SVG-20010904/DTD/svg10.dtd">
<svg version="1.0" xmlns="http://www.w3.org/2000/svg"
 width="31.000000pt" height="27.000000pt" viewBox="0 0 31.000000 27.000000"
 preserveAspectRatio="xMidYMid meet">
<metadata>
Created by potrace 1.16, written by Peter Selinger 2001-2019
</metadata>
<g transform="translate(0.000000,27.000000) scale(0.100000,-0.100000)"
fill="#000000" stroke="none">
<path d="M220 237 l0 -33 -12 -12 -12 -12 -17 0 -18 0 -6 20 -6 20 6 20 6 20
-45 0 -46 0 0 -47 0 -48 -9 -14 -9 -14 -20 5 -21 6 -5 -13 -5 -14 14 -11 15
-12 25 6 25 6 6 -15 6 -15 -10 -40 -10 -40 113 0 113 0 6 23 6 22 0 27 0 26
-35 -1 -35 -1 -12 12 -13 13 12 17 11 17 25 -3 25 -2 6 22 6 23 0 31 0 32 -22
6 -23 6 -17 0 -18 0 0 -33z"/>
</g>
</svg>
