<?xml version="1.0" standalone="no"?>
<!DOCTYPE svg PUBLIC "-//W3C//DTD SVG 20010904//EN"
 "http://www.w3.org/TR/2001/REC-SVG-20010904/DTD/svg10.dtd">
<svg version="1.0" xmlns="http://www.w3.org/2000/svg"
 width="33.000000pt" height="37.000000pt" viewBox="0 0 33.000000 37.000000"
 preserveAspectRatio="xMidYMid meet">
<metadata>
Created by potrace 1.16, written by Peter Selinger 2001-2019
</metadata>
<g transform="translate(0.000000,37.000000) scale(0.100000,-0.100000)"
fill="#000000" stroke="none">
<path d="M78 323 l-3 -48 -37 -3 -38 -3 0 -39 0 -39 22 -3 22 -3 15 -57 15
-57 43 6 43 6 0 -26 0 -25 6 -16 6 -16 27 0 27 0 12 12 12 12 0 33 0 34 35 -7
35 -6 0 18 0 19 -7 38 -6 39 -23 9 -24 9 0 18 0 18 12 12 12 12 23 0 23 0 0
50 0 50 -42 -6 -43 -6 -14 -4 -13 -4 5 -19 5 -19 -8 -12 -8 -13 -16 6 -16 6 0
36 0 35 -49 0 -50 0 -3 -47z"/>
</g>
</svg>
