<?xml version="1.0" standalone="no"?>
<!DOCTYPE svg PUBLIC "-//W3C//DTD SVG 20010904//EN"
 "http://www.w3.org/TR/2001/REC-SVG-20010904/DTD/svg10.dtd">
<svg version="1.0" xmlns="http://www.w3.org/2000/svg"
 width="31.000000pt" height="35.000000pt" viewBox="0 0 31.000000 35.000000"
 preserveAspectRatio="xMidYMid meet">
<metadata>
Created by potrace 1.16, written by Peter Selinger 2001-2019
</metadata>
<g transform="translate(0.000000,35.000000) scale(0.100000,-0.100000)"
fill="#000000" stroke="none">
<path d="M80 311 l0 -39 -6 -15 -6 -15 -34 5 -34 6 0 -33 0 -32 15 5 14 6 8
-12 8 -12 15 -45 15 -45 48 -3 48 -3 -6 -20 -6 -19 6 -20 6 -20 18 0 17 0 12
12 12 12 0 34 0 35 36 -6 36 -6 -6 31 -6 30 0 14 0 14 -25 10 -25 10 0 28 0
28 12 12 12 12 23 0 23 0 0 38 0 38 -42 -5 -41 -6 -1 -27 -2 -28 -11 -11 -11
-11 -21 11 -21 12 0 34 0 35 -40 0 -40 0 0 -39z"/>
</g>
</svg>
