<?xml version="1.0" standalone="no"?>
<!DOCTYPE svg PUBLIC "-//W3C//DTD SVG 20010904//EN"
 "http://www.w3.org/TR/2001/REC-SVG-20010904/DTD/svg10.dtd">
<svg version="1.0" xmlns="http://www.w3.org/2000/svg"
 width="34.000000pt" height="37.000000pt" viewBox="0 0 34.000000 37.000000"
 preserveAspectRatio="xMidYMid meet">
<metadata>
Created by potrace 1.16, written by Peter Selinger 2001-2019
</metadata>
<g transform="translate(0.000000,37.000000) scale(0.100000,-0.100000)"
fill="#000000" stroke="none">
<path d="M100 355 l-12 -14 7 -20 6 -20 -20 -10 -20 -11 -30 0 -31 0 0 -140 0
-140 135 0 135 0 -6 40 -7 40 17 0 17 0 24 16 25 16 0 32 0 32 -12 12 -12 12
-23 0 -23 0 0 44 0 45 -52 3 -51 3 -2 28 -1 28 -14 9 -15 10 -11 0 -12 0 -12
-15z"/>
</g>
</svg>
