<?xml version="1.0" standalone="no"?>
<!DOCTYPE svg PUBLIC "-//W3C//DTD SVG 20010904//EN"
 "http://www.w3.org/TR/2001/REC-SVG-20010904/DTD/svg10.dtd">
<svg version="1.0" xmlns="http://www.w3.org/2000/svg"
 width="32.000000pt" height="35.000000pt" viewBox="0 0 32.000000 35.000000"
 preserveAspectRatio="xMidYMid meet">
<metadata>
Created by potrace 1.16, written by Peter Selinger 2001-2019
</metadata>
<g transform="translate(0.000000,35.000000) scale(0.100000,-0.100000)"
fill="#000000" stroke="none">
<path d="M103 337 l-7 -12 2 -22 3 -22 -20 -10 -20 -11 -30 0 -31 0 0 -130 0
-130 123 0 122 0 -3 45 -4 45 15 -6 15 -6 26 17 26 17 0 23 0 23 -15 12 -15
12 -20 -5 -20 -5 0 50 0 50 -13 -5 -12 -5 -40 7 -40 6 -1 20 -2 20 -1 11 -1
12 -15 5 -14 6 -8 -12z"/>
</g>
</svg>
