<?xml version="1.0" standalone="no"?>
<!DOCTYPE svg PUBLIC "-//W3C//DTD SVG 20010904//EN"
 "http://www.w3.org/TR/2001/REC-SVG-20010904/DTD/svg10.dtd">
<svg version="1.0" xmlns="http://www.w3.org/2000/svg"
 width="25.000000pt" height="34.000000pt" viewBox="0 0 25.000000 34.000000"
 preserveAspectRatio="xMidYMid meet">
<metadata>
Created by potrace 1.16, written by Peter Selinger 2001-2019
</metadata>
<g transform="translate(0.000000,34.000000) scale(0.100000,-0.100000)"
fill="#000000" stroke="none">
<path d="M100 300 l0 -40 -45 0 -45 0 0 -44 0 -44 20 5 20 5 15 -12 15 -12 0
-23 0 -23 -26 -17 -26 -17 -14 6 -15 6 3 -43 3 -42 123 -3 122 -3 0 28 0 28
-6 22 -6 23 -32 -3 -31 -2 0 25 0 25 23 -3 23 -3 15 11 14 12 0 49 0 49 -37 0
-38 0 -14 9 -14 9 7 17 6 18 -11 13 -11 14 -19 0 -19 0 0 -40z"/>
</g>
</svg>
