<?xml version="1.0" standalone="no"?>
<!DOCTYPE svg PUBLIC "-//W3C//DTD SVG 20010904//EN"
 "http://www.w3.org/TR/2001/REC-SVG-20010904/DTD/svg10.dtd">
<svg version="1.0" xmlns="http://www.w3.org/2000/svg"
 width="35.000000pt" height="37.000000pt" viewBox="0 0 35.000000 37.000000"
 preserveAspectRatio="xMidYMid meet">
<metadata>
Created by potrace 1.16, written by Peter Selinger 2001-2019
</metadata>
<g transform="translate(0.000000,37.000000) scale(0.100000,-0.100000)"
fill="#000000" stroke="none">
<path d="M176 354 l-6 -16 0 -29 0 -29 -42 2 -42 3 -2 -15 -3 -15 -6 -36 -6
-37 -19 5 -20 5 -15 -12 -15 -12 0 -24 0 -24 27 -11 27 -10 19 5 18 4 -6 -51
-7 -52 129 4 128 3 4 3 3 4 -12 51 -12 52 -14 5 -14 5 0 8 0 9 28 3 27 3 3 67
3 67 -43 8 -43 9 -4 24 -3 25 -12 7 -11 8 -26 0 -27 0 -6 -16z"/>
</g>
</svg>
