<?xml version="1.0" standalone="no"?>
<!DOCTYPE svg PUBLIC "-//W3C//DTD SVG 20010904//EN"
 "http://www.w3.org/TR/2001/REC-SVG-20010904/DTD/svg10.dtd">
<svg version="1.0" xmlns="http://www.w3.org/2000/svg"
 width="33.000000pt" height="35.000000pt" viewBox="0 0 33.000000 35.000000"
 preserveAspectRatio="xMidYMid meet">
<metadata>
Created by potrace 1.16, written by Peter Selinger 2001-2019
</metadata>
<g transform="translate(0.000000,35.000000) scale(0.100000,-0.100000)"
fill="#000000" stroke="none">
<path d="M176 334 l-6 -16 0 -30 0 -30 -42 4 -43 3 -2 -15 -2 -15 -6 -38 -6
-38 -26 3 -25 3 -11 -17 -12 -17 13 -13 12 -12 36 1 37 1 -7 -51 -6 -52 120 3
120 3 -6 27 -7 27 -8 23 -9 22 -10 0 -10 0 0 23 0 23 28 -1 27 0 3 57 3 57
-38 7 -38 7 -12 9 -12 9 6 16 6 15 -14 9 -14 9 -16 0 -17 0 -6 -16z"/>
</g>
</svg>
