<?xml version="1.0" standalone="no"?>
<!DOCTYPE svg PUBLIC "-//W3C//DTD SVG 20010904//EN"
 "http://www.w3.org/TR/2001/REC-SVG-20010904/DTD/svg10.dtd">
<svg version="1.0" xmlns="http://www.w3.org/2000/svg"
 width="27.000000pt" height="38.000000pt" viewBox="0 0 27.000000 38.000000"
 preserveAspectRatio="xMidYMid meet">
<metadata>
Created by potrace 1.16, written by Peter Selinger 2001-2019
</metadata>
<g transform="translate(0.000000,38.000000) scale(0.100000,-0.100000)"
fill="#000000" stroke="none">
<path d="M4 366 l-5 -14 3 -48 3 -49 30 0 30 -1 0 -19 0 -20 -21 -3 -21 -3
-12 -56 -11 -56 0 -9 0 -8 39 0 40 0 3 -37 3 -38 28 -3 27 -3 15 15 15 15 0
31 0 31 50 -7 49 -6 -5 53 -6 54 -4 13 -3 12 -30 0 -29 0 -5 14 -6 14 6 6 7 6
31 -6 32 -6 5 14 5 13 -5 58 -4 57 -125 0 -124 0 -5 -14z"/>
</g>
</svg>
