<?xml version="1.0" standalone="no"?>
<!DOCTYPE svg PUBLIC "-//W3C//DTD SVG 20010904//EN"
 "http://www.w3.org/TR/2001/REC-SVG-20010904/DTD/svg10.dtd">
<svg version="1.0" xmlns="http://www.w3.org/2000/svg"
 width="25.000000pt" height="36.000000pt" viewBox="0 0 25.000000 36.000000"
 preserveAspectRatio="xMidYMid meet">
<metadata>
Created by potrace 1.16, written by Peter Selinger 2001-2019
</metadata>
<g transform="translate(0.000000,36.000000) scale(0.100000,-0.100000)"
fill="#000000" stroke="none">
<path d="M4 346 l-5 -14 3 -38 3 -39 30 0 30 0 0 -30 0 -30 -21 -3 -22 -3 -7
-37 -6 -37 -5 -18 -5 -17 40 0 40 0 3 -37 3 -38 17 -3 18 -3 15 15 15 15 0 32
0 32 48 -7 48 -6 -6 52 -5 53 -28 0 -28 0 -10 18 -11 18 6 16 6 16 35 -6 34
-6 3 10 3 9 -3 50 -4 50 -114 0 -115 0 -5 -14z"/>
</g>
</svg>
