<?xml version="1.0" standalone="no"?>
<!DOCTYPE svg PUBLIC "-//W3C//DTD SVG 20010904//EN"
 "http://www.w3.org/TR/2001/REC-SVG-20010904/DTD/svg10.dtd">
<svg version="1.0" xmlns="http://www.w3.org/2000/svg"
 width="42.000000pt" height="38.000000pt" viewBox="0 0 42.000000 38.000000"
 preserveAspectRatio="xMidYMid meet">
<metadata>
Created by potrace 1.16, written by Peter Selinger 2001-2019
</metadata>
<g transform="translate(0.000000,38.000000) scale(0.100000,-0.100000)"
fill="#000000" stroke="none">
<path d="M230 349 l0 -30 -15 -15 -15 -15 -10 6 -10 6 0 35 0 34 -50 0 -50 0
0 -45 0 -45 -12 -1 -13 -1 -25 -1 -25 -2 0 -40 0 -40 27 -3 27 -3 7 -59 7 -59
43 6 43 6 3 -39 3 -39 34 -3 34 -3 8 13 9 13 0 28 0 27 51 0 51 0 -7 33 -6 32
-5 16 -4 15 42 10 43 9 3 33 3 33 -11 14 -11 14 -30 6 -29 7 0 33 0 33 -22 6
-23 6 -32 0 -33 0 0 -31z"/>
</g>
</svg>
