<?xml version="1.0" standalone="no"?>
<!DOCTYPE svg PUBLIC "-//W3C//DTD SVG 20010904//EN"
 "http://www.w3.org/TR/2001/REC-SVG-20010904/DTD/svg10.dtd">
<svg version="1.0" xmlns="http://www.w3.org/2000/svg"
 width="40.000000pt" height="36.000000pt" viewBox="0 0 40.000000 36.000000"
 preserveAspectRatio="xMidYMid meet">
<metadata>
Created by potrace 1.16, written by Peter Selinger 2001-2019
</metadata>
<g transform="translate(0.000000,36.000000) scale(0.100000,-0.100000)"
fill="#000000" stroke="none">
<path d="M230 329 l0 -30 -15 -15 -15 -15 -18 3 -17 3 -3 38 -3 37 -40 0 -39
0 0 -45 0 -45 -12 -2 -13 -1 -25 -1 -25 -1 0 -30 0 -30 26 -3 27 -3 8 -47 7
-47 -1 -10 -2 -10 44 3 45 4 3 -39 3 -38 28 -3 27 -3 2 13 1 13 1 25 1 25 51
3 52 3 -10 41 -9 41 5 14 5 13 14 -6 14 -5 26 10 27 11 0 24 0 24 -15 12 -15
12 -25 2 -25 1 0 36 0 37 -22 6 -23 6 -22 0 -23 0 0 -31z"/>
</g>
</svg>
