<?xml version="1.0" standalone="no"?>
<!DOCTYPE svg PUBLIC "-//W3C//DTD SVG 20010904//EN"
 "http://www.w3.org/TR/2001/REC-SVG-20010904/DTD/svg10.dtd">
<svg version="1.0" xmlns="http://www.w3.org/2000/svg"
 width="33.000000pt" height="45.000000pt" viewBox="0 0 33.000000 45.000000"
 preserveAspectRatio="xMidYMid meet">
<metadata>
Created by potrace 1.16, written by Peter Selinger 2001-2019
</metadata>
<g transform="translate(0.000000,45.000000) scale(0.100000,-0.100000)"
fill="#000000" stroke="none">
<path d="M155 438 l-6 -14 3 -24 3 -25 -48 -3 -49 -3 4 -45 3 -44 -20 0 -21 0
-12 -12 -12 -12 0 -33 0 -32 19 -10 19 -10 6 -46 7 -45 45 0 44 0 0 -28 0 -28
12 -12 12 -12 27 0 28 0 15 22 16 22 0 23 0 23 40 -6 41 -7 -3 144 -3 144 -50
5 -49 5 -1 35 0 35 -33 3 -32 3 -5 -13z"/>
</g>
</svg>
