<?xml version="1.0" standalone="no"?>
<!DOCTYPE svg PUBLIC "-//W3C//DTD SVG 20010904//EN"
 "http://www.w3.org/TR/2001/REC-SVG-20010904/DTD/svg10.dtd">
<svg version="1.0" xmlns="http://www.w3.org/2000/svg"
 width="31.000000pt" height="43.000000pt" viewBox="0 0 31.000000 43.000000"
 preserveAspectRatio="xMidYMid meet">
<metadata>
Created by potrace 1.16, written by Peter Selinger 2001-2019
</metadata>
<g transform="translate(0.000000,43.000000) scale(0.100000,-0.100000)"
fill="#000000" stroke="none">
<path d="M159 423 l-2 -8 -1 -30 -1 -30 -49 -3 -49 -3 7 -45 6 -44 -24 0 -24
0 -12 -14 -12 -15 4 -23 3 -23 10 2 10 2 6 -12 7 -12 7 -42 7 -42 46 -3 47 -3
-3 -24 -2 -24 11 -13 11 -14 19 0 19 0 16 25 16 25 -5 21 -6 22 45 -7 45 -6
-3 133 -3 132 -50 5 -50 5 0 35 0 35 -22 3 -23 3 -1 -8z"/>
</g>
</svg>
