<?xml version="1.0" standalone="no"?>
<!DOCTYPE svg PUBLIC "-//W3C//DTD SVG 20010904//EN"
 "http://www.w3.org/TR/2001/REC-SVG-20010904/DTD/svg10.dtd">
<svg version="1.0" xmlns="http://www.w3.org/2000/svg"
 width="34.000000pt" height="39.000000pt" viewBox="0 0 34.000000 39.000000"
 preserveAspectRatio="xMidYMid meet">
<metadata>
Created by potrace 1.16, written by Peter Selinger 2001-2019
</metadata>
<g transform="translate(0.000000,39.000000) scale(0.100000,-0.100000)"
fill="#000000" stroke="none">
<path d="M43 383 l-33 -4 0 -49 0 -49 31 -3 32 -3 11 -17 11 -17 -12 -12 -11
-11 -33 -1 -34 -2 2 -48 1 -48 6 -15 5 -14 31 0 30 0 0 -39 0 -39 31 -7 30 -7
20 18 19 17 0 33 0 33 49 -6 50 -6 3 54 3 53 25 6 25 6 0 39 0 40 -30 5 -30 5
-3 39 -3 39 -46 -7 -45 -6 -9 -6 -9 -5 0 -20 0 -20 -17 3 -18 3 -3 30 -4 30
-11 7 -12 8 -10 -2 -10 -1 -32 -4z"/>
</g>
</svg>
