<?xml version="1.0" standalone="no"?>
<!DOCTYPE svg PUBLIC "-//W3C//DTD SVG 20010904//EN"
 "http://www.w3.org/TR/2001/REC-SVG-20010904/DTD/svg10.dtd">
<svg version="1.0" xmlns="http://www.w3.org/2000/svg"
 width="32.000000pt" height="37.000000pt" viewBox="0 0 32.000000 37.000000"
 preserveAspectRatio="xMidYMid meet">
<metadata>
Created by potrace 1.16, written by Peter Selinger 2001-2019
</metadata>
<g transform="translate(0.000000,37.000000) scale(0.100000,-0.100000)"
fill="#000000" stroke="none">
<path d="M43 362 l-33 -3 0 -37 0 -37 25 -1 25 -2 15 -12 15 -12 0 -24 0 -24
-27 -11 -26 -10 -14 5 -14 6 -5 -13 -5 -13 9 -39 8 -40 34 -5 35 -5 -3 -36 -3
-36 22 -6 23 -6 19 16 18 17 -3 31 -3 30 52 -3 52 -2 3 52 3 52 25 6 25 6 0
29 0 30 -30 5 -30 5 -3 38 -3 37 -17 -1 -17 -1 -25 -7 -25 -7 0 -19 0 -20 -30
0 -30 0 -3 32 -3 31 -12 4 -12 3 -32 -3z"/>
</g>
</svg>
