<?xml version="1.0" standalone="no"?>
<!DOCTYPE svg PUBLIC "-//W3C//DTD SVG 20010904//EN"
 "http://www.w3.org/TR/2001/REC-SVG-20010904/DTD/svg10.dtd">
<svg version="1.0" xmlns="http://www.w3.org/2000/svg"
 width="33.000000pt" height="36.000000pt" viewBox="0 0 33.000000 36.000000"
 preserveAspectRatio="xMidYMid meet">
<metadata>
Created by potrace 1.16, written by Peter Selinger 2001-2019
</metadata>
<g transform="translate(0.000000,36.000000) scale(0.100000,-0.100000)"
fill="#000000" stroke="none">
<path d="M88 328 l-3 -33 -42 -3 -43 -3 0 -145 0 -144 41 0 40 0 20 10 19 11
0 29 0 30 9 0 10 0 3 -32 3 -33 45 -7 45 -8 17 6 18 5 -6 40 -7 39 19 0 20 0
17 20 17 20 0 23 0 22 -8 11 -7 12 -20 3 -20 4 -3 25 -3 25 -4 22 -5 23 -45
-6 -44 -7 6 22 5 21 -12 15 -12 15 -34 0 -33 0 -3 -32z"/>
</g>
</svg>
