<?xml version="1.0" standalone="no"?>
<!DOCTYPE svg PUBLIC "-//W3C//DTD SVG 20010904//EN"
 "http://www.w3.org/TR/2001/REC-SVG-20010904/DTD/svg10.dtd">
<svg version="1.0" xmlns="http://www.w3.org/2000/svg"
 width="31.000000pt" height="34.000000pt" viewBox="0 0 31.000000 34.000000"
 preserveAspectRatio="xMidYMid meet">
<metadata>
Created by potrace 1.16, written by Peter Selinger 2001-2019
</metadata>
<g transform="translate(0.000000,34.000000) scale(0.100000,-0.100000)"
fill="#000000" stroke="none">
<path d="M88 308 l-3 -33 -42 -3 -43 -3 0 -135 0 -134 33 0 33 0 19 14 18 13
-5 21 -6 21 12 10 12 10 13 -9 14 -8 1 -28 1 -29 40 -6 40 -7 10 4 10 4 -3 45
-4 45 17 -6 16 -7 20 22 21 22 -6 24 -6 24 -23 3 -22 3 -3 25 -3 25 -4 22 -5
22 -28 -8 -27 -7 -18 4 -19 4 6 21 5 21 -11 13 -10 13 -24 0 -23 0 -3 -32z"/>
</g>
</svg>
