<?xml version="1.0" standalone="no"?>
<!DOCTYPE svg PUBLIC "-//W3C//DTD SVG 20010904//EN"
 "http://www.w3.org/TR/2001/REC-SVG-20010904/DTD/svg10.dtd">
<svg version="1.0" xmlns="http://www.w3.org/2000/svg"
 width="32.000000pt" height="29.000000pt" viewBox="0 0 32.000000 29.000000"
 preserveAspectRatio="xMidYMid meet">
<metadata>
Created by potrace 1.16, written by Peter Selinger 2001-2019
</metadata>
<g transform="translate(0.000000,29.000000) scale(0.100000,-0.100000)"
fill="#000000" stroke="none">
<path d="M2 238 l3 -53 30 -5 30 -5 0 -20 0 -19 -25 -6 -25 -6 -3 -62 -3 -62
39 0 38 0 12 12 12 12 0 23 0 23 10 0 10 0 0 -24 0 -25 8 -4 7 -5 57 -6 56 -7
12 55 11 56 20 0 19 0 0 39 0 40 -32 3 -33 3 -3 44 -3 43 -41 -6 -41 -7 -9 -5
-8 -5 0 -19 0 -19 -10 -6 -10 -6 -17 10 -17 9 -1 29 0 28 -48 3 -48 3 3 -53z"/>
</g>
</svg>
