<?xml version="1.0" standalone="no"?>
<!DOCTYPE svg PUBLIC "-//W3C//DTD SVG 20010904//EN"
 "http://www.w3.org/TR/2001/REC-SVG-20010904/DTD/svg10.dtd">
<svg version="1.0" xmlns="http://www.w3.org/2000/svg"
 width="30.000000pt" height="27.000000pt" viewBox="0 0 30.000000 27.000000"
 preserveAspectRatio="xMidYMid meet">
<metadata>
Created by potrace 1.16, written by Peter Selinger 2001-2019
</metadata>
<g transform="translate(0.000000,27.000000) scale(0.100000,-0.100000)"
fill="#000000" stroke="none">
<path d="M2 228 l3 -43 30 -5 30 -5 0 -30 0 -29 -25 -6 -25 -6 -3 -52 -3 -52
28 0 29 0 12 12 12 12 0 24 0 23 23 -3 22 -3 -3 -23 -3 -22 13 -4 13 -4 42 -6
42 -6 11 55 11 55 20 0 19 0 0 31 0 31 -30 -4 -29 -4 -6 14 -5 14 0 35 0 35
-32 -7 -33 -7 -8 -5 -8 -5 3 -15 3 -15 -17 -11 -16 -11 -27 12 -26 12 3 27 3
28 -38 3 -38 3 3 -43z"/>
</g>
</svg>
