<?xml version="1.0" standalone="no"?>
<!DOCTYPE svg PUBLIC "-//W3C//DTD SVG 20010904//EN"
 "http://www.w3.org/TR/2001/REC-SVG-20010904/DTD/svg10.dtd">
<svg version="1.0" xmlns="http://www.w3.org/2000/svg"
 width="28.000000pt" height="45.000000pt" viewBox="0 0 28.000000 45.000000"
 preserveAspectRatio="xMidYMid meet">
<metadata>
Created by potrace 1.16, written by Peter Selinger 2001-2019
</metadata>
<g transform="translate(0.000000,45.000000) scale(0.100000,-0.100000)"
fill="#000000" stroke="none">
<path d="M100 428 l0 -24 -12 -12 -12 -12 -38 0 -38 0 0 -60 0 -60 30 0 30 0
0 -15 0 -15 -14 0 -15 0 -11 -56 -12 -55 6 -15 5 -14 36 0 35 0 0 -28 0 -28
13 -18 13 -18 29 4 30 3 5 40 5 40 47 3 48 3 0 7 -1 7 -18 55 -19 55 -21 10
-21 10 0 13 0 14 31 -7 31 -7 9 13 9 14 0 56 0 56 -52 2 -51 1 -6 5 -5 6 -1
22 0 22 -32 3 -33 3 0 -23z"/>
</g>
</svg>
