<?xml version="1.0" standalone="no"?>
<!DOCTYPE svg PUBLIC "-//W3C//DTD SVG 20010904//EN"
 "http://www.w3.org/TR/2001/REC-SVG-20010904/DTD/svg10.dtd">
<svg version="1.0" xmlns="http://www.w3.org/2000/svg"
 width="26.000000pt" height="43.000000pt" viewBox="0 0 26.000000 43.000000"
 preserveAspectRatio="xMidYMid meet">
<metadata>
Created by potrace 1.16, written by Peter Selinger 2001-2019
</metadata>
<g transform="translate(0.000000,43.000000) scale(0.100000,-0.100000)"
fill="#000000" stroke="none">
<path d="M100 408 l0 -24 -12 -12 -12 -12 -38 0 -38 0 0 -51 0 -50 18 2 17 1
13 -1 12 -1 0 -25 0 -25 -14 0 -14 0 -11 -51 -11 -51 6 -9 5 -9 40 0 39 0 -6
-24 -6 -24 12 -22 11 -21 22 3 22 3 5 40 5 40 46 3 46 3 -16 47 -16 47 -8 12
-8 12 -14 -6 -15 -5 0 32 0 33 34 -6 34 -5 6 15 6 15 0 44 0 45 -8 -5 -8 -5
-50 7 -49 7 0 25 0 25 -23 3 -22 3 0 -23z"/>
</g>
</svg>
