<?xml version="1.0" standalone="no"?>
<!DOCTYPE svg PUBLIC "-//W3C//DTD SVG 20010904//EN"
 "http://www.w3.org/TR/2001/REC-SVG-20010904/DTD/svg10.dtd">
<svg version="1.0" xmlns="http://www.w3.org/2000/svg"
 width="34.000000pt" height="30.000000pt" viewBox="0 0 34.000000 30.000000"
 preserveAspectRatio="xMidYMid meet">
<metadata>
Created by potrace 1.16, written by Peter Selinger 2001-2019
</metadata>
<g transform="translate(0.000000,30.000000) scale(0.100000,-0.100000)"
fill="#000000" stroke="none">
<path d="M80 251 l0 -50 -37 -3 -38 -3 -3 -27 -3 -26 28 -14 28 -13 9 -57 9
-57 46 6 46 6 13 10 12 9 1 32 1 31 7 -30 6 -30 54 -13 53 -13 14 5 14 5 0 59
0 58 -11 11 -11 11 11 6 11 7 0 66 0 65 -22 -6 -23 -6 -27 -6 -28 -6 0 -25 0
-24 -16 -6 -17 -6 -16 10 -16 11 3 31 2 31 -50 0 -50 0 0 -49z m217 -87 l-6
-6 -13 5 -13 5 19 1 19 1 -6 -6z"/>
</g>
</svg>
