<?xml version="1.0" standalone="no"?>
<!DOCTYPE svg PUBLIC "-//W3C//DTD SVG 20010904//EN"
 "http://www.w3.org/TR/2001/REC-SVG-20010904/DTD/svg10.dtd">
<svg version="1.0" xmlns="http://www.w3.org/2000/svg"
 width="32.000000pt" height="28.000000pt" viewBox="0 0 32.000000 28.000000"
 preserveAspectRatio="xMidYMid meet">
<metadata>
Created by potrace 1.16, written by Peter Selinger 2001-2019
</metadata>
<g transform="translate(0.000000,28.000000) scale(0.100000,-0.100000)"
fill="#000000" stroke="none">
<path d="M80 231 l0 -50 -37 -3 -38 -3 -3 -17 -3 -16 27 -14 27 -13 12 -46 11
-46 -3 -9 -3 -10 37 4 38 4 13 11 13 10 -3 26 -3 26 20 0 20 0 0 -25 0 -25 49
-12 49 -12 9 5 8 5 0 49 0 49 -12 8 -13 8 -20 0 -20 0 -3 18 -4 19 34 -4 33
-3 3 56 3 56 -40 -10 -40 -11 -3 -25 -3 -26 -28 -3 -28 -3 -15 12 -16 13 4 28
5 28 -39 0 -38 0 0 -49z"/>
</g>
</svg>
