<?xml version="1.0" standalone="no"?>
<!DOCTYPE svg PUBLIC "-//W3C//DTD SVG 20010904//EN"
 "http://www.w3.org/TR/2001/REC-SVG-20010904/DTD/svg10.dtd">
<svg version="1.0" xmlns="http://www.w3.org/2000/svg"
 width="34.000000pt" height="37.000000pt" viewBox="0 0 34.000000 37.000000"
 preserveAspectRatio="xMidYMid meet">
<metadata>
Created by potrace 1.16, written by Peter Selinger 2001-2019
</metadata>
<g transform="translate(0.000000,37.000000) scale(0.100000,-0.100000)"
fill="#000000" stroke="none">
<path d="M70 316 l0 -56 -36 0 -35 0 3 -27 3 -28 30 -5 30 -6 -2 -61 -1 -62
44 6 44 6 0 -29 0 -29 9 -13 8 -13 39 3 39 3 3 38 3 37 45 0 45 0 -3 62 -3 63
-30 3 -30 4 -12 10 -13 10 6 10 6 9 17 -6 18 -5 17 6 16 6 0 59 0 59 -19 0
-20 0 -5 -9 -6 -8 -30 -6 -30 -6 0 -25 0 -24 -15 -6 -15 -5 -15 5 -14 6 2 36
2 37 -47 3 -48 3 0 -55z"/>
</g>
</svg>
