<?xml version="1.0" standalone="no"?>
<!DOCTYPE svg PUBLIC "-//W3C//DTD SVG 20010904//EN"
 "http://www.w3.org/TR/2001/REC-SVG-20010904/DTD/svg10.dtd">
<svg version="1.0" xmlns="http://www.w3.org/2000/svg"
 width="32.000000pt" height="35.000000pt" viewBox="0 0 32.000000 35.000000"
 preserveAspectRatio="xMidYMid meet">
<metadata>
Created by potrace 1.16, written by Peter Selinger 2001-2019
</metadata>
<g transform="translate(0.000000,35.000000) scale(0.100000,-0.100000)"
fill="#000000" stroke="none">
<path d="M68 293 l-3 -58 -33 3 -34 4 4 -19 4 -18 21 2 21 2 12 -14 12 -15 -4
-53 -4 -52 43 4 43 3 0 -28 0 -29 9 -13 8 -14 29 4 29 3 5 40 5 40 41 -3 41
-3 -1 53 -1 53 -28 0 -27 1 -16 16 -17 16 7 17 6 16 22 -1 23 -2 13 1 12 1 0
50 0 50 -9 0 -10 0 -5 -9 -6 -8 -31 -7 -31 -6 5 -15 6 -14 -15 -16 -15 -15
-17 0 -17 0 -13 9 -14 8 4 34 3 34 -37 3 -37 3 -3 -58z"/>
</g>
</svg>
