<?xml version="1.0" standalone="no"?>
<!DOCTYPE svg PUBLIC "-//W3C//DTD SVG 20010904//EN"
 "http://www.w3.org/TR/2001/REC-SVG-20010904/DTD/svg10.dtd">
<svg version="1.0" xmlns="http://www.w3.org/2000/svg"
 width="34.000000pt" height="30.000000pt" viewBox="0 0 34.000000 30.000000"
 preserveAspectRatio="xMidYMid meet">
<metadata>
Created by potrace 1.16, written by Peter Selinger 2001-2019
</metadata>
<g transform="translate(0.000000,30.000000) scale(0.100000,-0.100000)"
fill="#000000" stroke="none">
<path d="M80 251 l0 -50 -37 -3 -38 -3 -3 -27 -3 -26 23 -16 22 -16 24 0 24 0
-4 -48 -3 -47 50 0 50 0 3 38 3 38 12 -4 11 -3 0 -35 1 -34 60 -7 60 -6 0 1 0
2 -3 143 -4 142 -18 0 -19 0 -26 -10 -27 -10 5 -20 5 -20 -19 -10 -19 -11 -13
12 -13 12 4 34 4 33 -56 0 -56 0 0 -49z"/>
</g>
</svg>
