<?xml version="1.0" standalone="no"?>
<!DOCTYPE svg PUBLIC "-//W3C//DTD SVG 20010904//EN"
 "http://www.w3.org/TR/2001/REC-SVG-20010904/DTD/svg10.dtd">
<svg version="1.0" xmlns="http://www.w3.org/2000/svg"
 width="32.000000pt" height="28.000000pt" viewBox="0 0 32.000000 28.000000"
 preserveAspectRatio="xMidYMid meet">
<metadata>
Created by potrace 1.16, written by Peter Selinger 2001-2019
</metadata>
<g transform="translate(0.000000,28.000000) scale(0.100000,-0.100000)"
fill="#000000" stroke="none">
<path d="M80 230 l0 -50 -12 -1 -13 -1 -23 2 -22 1 -6 -16 -7 -17 17 -16 16
-16 27 -1 28 0 1 -50 1 -50 39 0 39 0 0 35 0 35 25 0 25 0 0 -35 0 -35 48 -3
47 -3 0 130 0 131 -12 -1 -13 0 -20 -8 -20 -8 0 -24 0 -23 -27 -10 -26 -9 -16
16 -16 15 6 31 7 31 -47 0 -46 0 0 -50z"/>
</g>
</svg>
