<?xml version="1.0" standalone="no"?>
<!DOCTYPE svg PUBLIC "-//W3C//DTD SVG 20010904//EN"
 "http://www.w3.org/TR/2001/REC-SVG-20010904/DTD/svg10.dtd">
<svg version="1.0" xmlns="http://www.w3.org/2000/svg"
 width="41.000000pt" height="38.000000pt" viewBox="0 0 41.000000 38.000000"
 preserveAspectRatio="xMidYMid meet">
<metadata>
Created by potrace 1.16, written by Peter Selinger 2001-2019
</metadata>
<g transform="translate(0.000000,38.000000) scale(0.100000,-0.100000)"
fill="#000000" stroke="none">
<path d="M165 370 l-6 -10 6 -19 5 -18 -12 -11 -13 -10 -35 -4 -35 -3 -3 -37
-3 -38 -23 0 -22 0 -12 -12 -12 -12 0 -38 0 -39 22 -8 22 -8 11 -49 10 -49 58
-3 57 -3 0 33 0 33 8 13 9 13 15 -6 16 -6 -5 -18 -4 -17 13 -12 13 -11 53 -7
52 -7 0 14 0 14 11 38 10 37 14 0 15 0 6 24 6 24 -4 19 -3 18 -33 3 -32 3 0
44 0 44 -17 9 -18 9 -37 7 -37 7 -3 27 -3 27 -27 3 -26 3 -7 -11z"/>
</g>
</svg>
