<?xml version="1.0" standalone="no"?>
<!DOCTYPE svg PUBLIC "-//W3C//DTD SVG 20010904//EN"
 "http://www.w3.org/TR/2001/REC-SVG-20010904/DTD/svg10.dtd">
<svg version="1.0" xmlns="http://www.w3.org/2000/svg"
 width="39.000000pt" height="36.000000pt" viewBox="0 0 39.000000 36.000000"
 preserveAspectRatio="xMidYMid meet">
<metadata>
Created by potrace 1.16, written by Peter Selinger 2001-2019
</metadata>
<g transform="translate(0.000000,36.000000) scale(0.100000,-0.100000)"
fill="#000000" stroke="none">
<path d="M169 353 l-1 -8 1 -21 2 -21 -13 -11 -13 -10 -35 -4 -35 -3 -3 -37
-3 -38 -23 0 -22 0 -12 -12 -12 -12 0 -28 0 -29 22 -8 22 -8 11 -48 10 -48 48
-4 47 -4 0 33 0 33 9 14 9 14 27 -7 27 -7 -5 -19 -5 -19 12 -10 11 -9 41 -6
41 -7 12 55 12 55 14 -5 14 -6 7 26 6 25 -7 10 -6 11 -30 0 -29 0 0 44 0 45
-10 6 -11 7 -47 11 -47 12 0 25 0 25 -17 3 -18 3 -1 -8z"/>
</g>
</svg>
