<?xml version="1.0" standalone="no"?>
<!DOCTYPE svg PUBLIC "-//W3C//DTD SVG 20010904//EN"
 "http://www.w3.org/TR/2001/REC-SVG-20010904/DTD/svg10.dtd">
<svg version="1.0" xmlns="http://www.w3.org/2000/svg"
 width="27.000000pt" height="38.000000pt" viewBox="0 0 27.000000 38.000000"
 preserveAspectRatio="xMidYMid meet">
<metadata>
Created by potrace 1.16, written by Peter Selinger 2001-2019
</metadata>
<g transform="translate(0.000000,38.000000) scale(0.100000,-0.100000)"
fill="#000000" stroke="none">
<path d="M7 373 l-7 -6 0 -38 0 -37 6 -16 6 -16 35 0 34 0 -3 -27 -3 -28 -37
-3 -38 -3 0 -60 0 -59 35 0 35 0 0 -30 0 -29 19 -11 20 -10 23 0 24 0 12 12
12 12 0 16 0 16 46 12 46 13 -6 22 -6 22 -6 38 -7 38 -26 17 -25 17 34 5 35 5
3 68 3 67 -129 0 -129 0 -6 -7z"/>
</g>
</svg>
