<?xml version="1.0" standalone="no"?>
<!DOCTYPE svg PUBLIC "-//W3C//DTD SVG 20010904//EN"
 "http://www.w3.org/TR/2001/REC-SVG-20010904/DTD/svg10.dtd">
<svg version="1.0" xmlns="http://www.w3.org/2000/svg"
 width="25.000000pt" height="36.000000pt" viewBox="0 0 25.000000 36.000000"
 preserveAspectRatio="xMidYMid meet">
<metadata>
Created by potrace 1.16, written by Peter Selinger 2001-2019
</metadata>
<g transform="translate(0.000000,36.000000) scale(0.100000,-0.100000)"
fill="#000000" stroke="none">
<path d="M7 353 l-7 -6 0 -31 0 -31 9 -14 9 -13 18 6 19 6 11 -8 10 -7 6 -15
5 -15 -8 -22 -8 -23 -36 0 -35 0 0 -49 0 -50 38 -3 37 -3 -3 -28 -3 -27 26
-12 27 -12 16 11 17 10 0 18 0 18 46 13 46 14 -11 47 -11 48 -8 13 -8 12 -9
-5 -9 -5 -6 21 -7 21 7 6 7 7 26 0 27 0 3 58 3 57 -119 0 -119 0 -6 -7z"/>
</g>
</svg>
