<?xml version="1.0" standalone="no"?>
<!DOCTYPE svg PUBLIC "-//W3C//DTD SVG 20010904//EN"
 "http://www.w3.org/TR/2001/REC-SVG-20010904/DTD/svg10.dtd">
<svg version="1.0" xmlns="http://www.w3.org/2000/svg"
 width="33.000000pt" height="30.000000pt" viewBox="0 0 33.000000 30.000000"
 preserveAspectRatio="xMidYMid meet">
<metadata>
Created by potrace 1.16, written by Peter Selinger 2001-2019
</metadata>
<g transform="translate(0.000000,30.000000) scale(0.100000,-0.100000)"
fill="#000000" stroke="none">
<path d="M224 276 l6 -24 -19 -23 -20 -24 -12 13 -13 12 -1 28 0 27 -49 3 -48
3 6 -55 7 -56 -28 0 -29 0 -12 -12 -12 -12 0 -18 0 -18 18 0 19 0 16 -60 17
-60 130 0 130 0 0 144 0 144 -22 6 -23 6 -34 0 -33 0 6 -24z"/>
</g>
</svg>
