<?xml version="1.0" standalone="no"?>
<!DOCTYPE svg PUBLIC "-//W3C//DTD SVG 20010904//EN"
 "http://www.w3.org/TR/2001/REC-SVG-20010904/DTD/svg10.dtd">
<svg version="1.0" xmlns="http://www.w3.org/2000/svg"
 width="31.000000pt" height="28.000000pt" viewBox="0 0 31.000000 28.000000"
 preserveAspectRatio="xMidYMid meet">
<metadata>
Created by potrace 1.16, written by Peter Selinger 2001-2019
</metadata>
<g transform="translate(0.000000,28.000000) scale(0.100000,-0.100000)"
fill="#000000" stroke="none">
<path d="M227 260 l5 -20 -16 -25 -16 -25 -19 0 -19 0 -11 14 -11 13 2 24 3
24 -37 3 -37 3 2 -58 2 -58 -24 3 -24 2 -13 -11 -14 -11 0 -9 0 -9 18 0 19 0
16 -60 17 -60 120 0 120 0 0 134 0 134 -22 6 -23 6 -22 0 -21 0 5 -20z"/>
</g>
</svg>
