<?xml version="1.0" standalone="no"?>
<!DOCTYPE svg PUBLIC "-//W3C//DTD SVG 20010904//EN"
 "http://www.w3.org/TR/2001/REC-SVG-20010904/DTD/svg10.dtd">
<svg version="1.0" xmlns="http://www.w3.org/2000/svg"
 width="41.000000pt" height="29.000000pt" viewBox="0 0 41.000000 29.000000"
 preserveAspectRatio="xMidYMid meet">
<metadata>
Created by potrace 1.16, written by Peter Selinger 2001-2019
</metadata>
<g transform="translate(0.000000,29.000000) scale(0.100000,-0.100000)"
fill="#000000" stroke="none">
<path d="M80 241 l0 -50 -12 -8 -13 -8 -25 0 -25 0 0 -35 0 -35 30 0 30 0 7
-15 7 -15 0 -32 1 -31 123 -4 122 -3 7 10 8 10 0 42 0 42 33 3 32 3 0 30 0 30
-25 1 -26 0 -12 8 -12 7 0 51 0 50 -22 -6 -23 -6 -27 0 -27 0 -3 -27 -3 -28
-27 -3 -28 -3 0 35 0 36 -45 0 -45 0 0 -49z"/>
</g>
</svg>
