<?xml version="1.0" standalone="no"?>
<!DOCTYPE svg PUBLIC "-//W3C//DTD SVG 20010904//EN"
 "http://www.w3.org/TR/2001/REC-SVG-20010904/DTD/svg10.dtd">
<svg version="1.0" xmlns="http://www.w3.org/2000/svg"
 width="39.000000pt" height="27.000000pt" viewBox="0 0 39.000000 27.000000"
 preserveAspectRatio="xMidYMid meet">
<metadata>
Created by potrace 1.16, written by Peter Selinger 2001-2019
</metadata>
<g transform="translate(0.000000,27.000000) scale(0.100000,-0.100000)"
fill="#000000" stroke="none">
<path d="M80 221 l0 -49 -14 -12 -15 -11 -23 3 -23 3 0 -25 0 -25 31 2 32 3 6
-23 6 -22 0 -27 0 -27 115 -3 115 -3 5 13 5 14 0 38 0 39 33 3 32 3 0 20 0 20
-24 -3 -24 -2 -13 11 -14 11 0 47 0 47 -39 -4 -40 -4 -3 -26 -3 -27 -37 -3
-38 -3 0 35 0 36 -35 0 -35 0 0 -49z"/>
</g>
</svg>
