<?xml version="1.0" standalone="no"?>
<!DOCTYPE svg PUBLIC "-//W3C//DTD SVG 20010904//EN"
 "http://www.w3.org/TR/2001/REC-SVG-20010904/DTD/svg10.dtd">
<svg version="1.0" xmlns="http://www.w3.org/2000/svg"
 width="34.000000pt" height="31.000000pt" viewBox="0 0 34.000000 31.000000"
 preserveAspectRatio="xMidYMid meet">
<metadata>
Created by potrace 1.16, written by Peter Selinger 2001-2019
</metadata>
<g transform="translate(0.000000,31.000000) scale(0.100000,-0.100000)"
fill="#000000" stroke="none">
<path d="M68 253 l-3 -58 -28 3 -27 3 -6 -15 -6 -16 6 -24 6 -24 19 -5 19 -5
7 -56 7 -56 37 5 36 6 22 11 22 11 3 26 3 26 10 0 10 0 4 -25 3 -25 12 -7 11
-8 37 0 37 0 6 10 7 11 -12 51 -13 51 -18 4 -19 5 0 9 0 9 19 0 19 0 14 23 15
22 6 48 7 47 -135 0 -134 0 -3 -57z"/>
</g>
</svg>
