<?xml version="1.0" standalone="no"?>
<!DOCTYPE svg PUBLIC "-//W3C//DTD SVG 20010904//EN"
 "http://www.w3.org/TR/2001/REC-SVG-20010904/DTD/svg10.dtd">
<svg version="1.0" xmlns="http://www.w3.org/2000/svg"
 width="32.000000pt" height="29.000000pt" viewBox="0 0 32.000000 29.000000"
 preserveAspectRatio="xMidYMid meet">
<metadata>
Created by potrace 1.16, written by Peter Selinger 2001-2019
</metadata>
<g transform="translate(0.000000,29.000000) scale(0.100000,-0.100000)"
fill="#000000" stroke="none">
<path d="M68 233 l-3 -58 -27 0 -26 0 -7 -7 -7 -6 7 -21 6 -21 9 5 9 5 8 -12
8 -13 10 -45 10 -45 24 -3 24 -4 24 13 25 13 -5 23 -4 23 17 5 17 5 17 -6 17
-6 -7 -20 -6 -20 13 -9 14 -9 27 0 27 0 5 8 5 8 -11 43 -11 44 -19 5 -18 4 0
19 0 19 19 0 19 0 14 23 15 22 5 38 4 37 -123 0 -122 0 -3 -57z"/>
</g>
</svg>
