<?xml version="1.0" standalone="no"?>
<!DOCTYPE svg PUBLIC "-//W3C//DTD SVG 20010904//EN"
 "http://www.w3.org/TR/2001/REC-SVG-20010904/DTD/svg10.dtd">
<svg version="1.0" xmlns="http://www.w3.org/2000/svg"
 width="35.000000pt" height="39.000000pt" viewBox="0 0 35.000000 39.000000"
 preserveAspectRatio="xMidYMid meet">
<metadata>
Created by potrace 1.16, written by Peter Selinger 2001-2019
</metadata>
<g transform="translate(0.000000,39.000000) scale(0.100000,-0.100000)"
fill="#000000" stroke="none">
<path d="M70 336 l0 -54 -35 -6 -35 -7 0 -24 0 -25 27 -6 28 -6 10 -2 10 -3 0
-54 0 -54 33 -3 32 -3 0 -39 0 -40 25 -6 25 -6 24 6 24 6 10 30 11 30 13 0 14
0 26 12 26 13 6 29 6 29 0 44 0 44 -35 -3 -35 -2 -12 12 -12 12 10 1 9 2 30 1
30 1 3 19 4 18 -7 44 -6 44 -130 0 -129 0 0 -54z"/>
</g>
</svg>
