<?xml version="1.0" standalone="no"?>
<!DOCTYPE svg PUBLIC "-//W3C//DTD SVG 20010904//EN"
 "http://www.w3.org/TR/2001/REC-SVG-20010904/DTD/svg10.dtd">
<svg version="1.0" xmlns="http://www.w3.org/2000/svg"
 width="33.000000pt" height="37.000000pt" viewBox="0 0 33.000000 37.000000"
 preserveAspectRatio="xMidYMid meet">
<metadata>
Created by potrace 1.16, written by Peter Selinger 2001-2019
</metadata>
<g transform="translate(0.000000,37.000000) scale(0.100000,-0.100000)"
fill="#000000" stroke="none">
<path d="M72 315 l5 -55 -11 -1 -11 -1 -10 -3 -10 -2 -17 -1 -18 -2 0 -14 0
-14 15 -6 15 -5 13 5 14 5 11 -14 12 -14 -2 -49 -3 -49 35 -5 35 -5 -3 -34 -4
-34 14 -8 13 -9 17 0 17 0 15 15 15 16 -5 13 -5 14 23 7 23 7 27 11 26 11 6
29 6 29 0 35 0 35 -28 -6 -27 -7 -19 14 -19 14 7 18 6 17 30 -5 29 -6 7 10 6
10 -7 45 -6 44 -121 0 -120 0 4 -55z"/>
</g>
</svg>
