<?xml version="1.0" standalone="no"?>
<!DOCTYPE svg PUBLIC "-//W3C//DTD SVG 20010904//EN"
 "http://www.w3.org/TR/2001/REC-SVG-20010904/DTD/svg10.dtd">
<svg version="1.0" xmlns="http://www.w3.org/2000/svg"
 width="34.000000pt" height="38.000000pt" viewBox="0 0 34.000000 38.000000"
 preserveAspectRatio="xMidYMid meet">
<metadata>
Created by potrace 1.16, written by Peter Selinger 2001-2019
</metadata>
<g transform="translate(0.000000,38.000000) scale(0.100000,-0.100000)"
fill="#000000" stroke="none">
<path d="M77 373 l-7 -6 0 -29 0 -29 -16 -24 -16 -25 -19 0 -19 0 0 -30 0 -30
15 0 15 0 10 -26 10 -25 0 -35 0 -34 45 0 45 0 0 -29 0 -29 14 -11 15 -12 38
3 38 3 3 26 3 25 42 11 43 12 1 62 2 63 -11 13 -10 13 -32 1 -31 1 38 8 37 7
4 4 5 4 -6 63 -6 62 -122 0 -122 0 -6 -7z"/>
</g>
</svg>
