<?xml version="1.0" standalone="no"?>
<!DOCTYPE svg PUBLIC "-//W3C//DTD SVG 20010904//EN"
 "http://www.w3.org/TR/2001/REC-SVG-20010904/DTD/svg10.dtd">
<svg version="1.0" xmlns="http://www.w3.org/2000/svg"
 width="32.000000pt" height="36.000000pt" viewBox="0 0 32.000000 36.000000"
 preserveAspectRatio="xMidYMid meet">
<metadata>
Created by potrace 1.16, written by Peter Selinger 2001-2019
</metadata>
<g transform="translate(0.000000,36.000000) scale(0.100000,-0.100000)"
fill="#000000" stroke="none">
<path d="M77 353 l-7 -6 0 -29 0 -29 -16 -24 -16 -25 -19 0 -19 0 0 -20 0 -20
15 0 15 0 11 -27 11 -28 1 -32 1 -33 46 0 47 0 -5 -28 -4 -28 16 -13 15 -12
28 3 28 3 3 26 3 25 42 11 42 12 0 53 0 53 -9 13 -8 13 -14 -5 -14 -5 -15 5
-15 6 0 14 0 14 13 1 12 2 23 2 23 2 2 4 3 4 -4 53 -4 52 -112 0 -113 0 -6 -7z"/>
</g>
</svg>
