<?xml version="1.0" standalone="no"?>
<!DOCTYPE svg PUBLIC "-//W3C//DTD SVG 20010904//EN"
 "http://www.w3.org/TR/2001/REC-SVG-20010904/DTD/svg10.dtd">
<svg version="1.0" xmlns="http://www.w3.org/2000/svg"
 width="33.000000pt" height="39.000000pt" viewBox="0 0 33.000000 39.000000"
 preserveAspectRatio="xMidYMid meet">
<metadata>
Created by potrace 1.16, written by Peter Selinger 2001-2019
</metadata>
<g transform="translate(0.000000,39.000000) scale(0.100000,-0.100000)"
fill="#000000" stroke="none">
<path d="M74 341 l7 -50 -38 -3 -38 -3 -3 -27 -3 -27 22 -11 21 -12 25 5 25 5
-7 -64 -7 -64 41 0 41 0 -6 -30 -6 -29 15 -16 16 -15 21 0 21 0 20 10 19 11 0
24 0 24 36 7 36 7 -6 21 -6 21 0 133 0 132 -126 0 -127 0 7 -49z"/>
</g>
</svg>
