<?xml version="1.0" standalone="no"?>
<!DOCTYPE svg PUBLIC "-//W3C//DTD SVG 20010904//EN"
 "http://www.w3.org/TR/2001/REC-SVG-20010904/DTD/svg10.dtd">
<svg version="1.0" xmlns="http://www.w3.org/2000/svg"
 width="31.000000pt" height="37.000000pt" viewBox="0 0 31.000000 37.000000"
 preserveAspectRatio="xMidYMid meet">
<metadata>
Created by potrace 1.16, written by Peter Selinger 2001-2019
</metadata>
<g transform="translate(0.000000,37.000000) scale(0.100000,-0.100000)"
fill="#000000" stroke="none">
<path d="M73 318 l2 -53 -33 3 -32 3 -7 -17 -6 -17 19 -14 19 -14 29 7 29 6
-6 -66 -6 -66 41 0 41 0 -7 -31 -6 -31 16 -15 16 -16 26 9 27 10 0 24 0 24 35
11 35 10 -3 143 -3 142 -114 0 -114 0 2 -52z"/>
</g>
</svg>
