<?xml version="1.0" standalone="no"?>
<!DOCTYPE svg PUBLIC "-//W3C//DTD SVG 20010904//EN"
 "http://www.w3.org/TR/2001/REC-SVG-20010904/DTD/svg10.dtd">
<svg version="1.0" xmlns="http://www.w3.org/2000/svg"
 width="27.000000pt" height="38.000000pt" viewBox="0 0 27.000000 38.000000"
 preserveAspectRatio="xMidYMid meet">
<metadata>
Created by potrace 1.16, written by Peter Selinger 2001-2019
</metadata>
<g transform="translate(0.000000,38.000000) scale(0.100000,-0.100000)"
fill="#000000" stroke="none">
<path d="M100 366 l-12 -16 4 -25 5 -25 -48 0 -49 0 0 -146 0 -145 53 3 52 3
3 33 3 33 17 -3 17 -3 3 -32 3 -31 23 -6 22 -5 38 10 38 10 -6 22 -6 22 -6 37
-6 37 -27 3 -26 3 -3 18 -3 17 24 0 25 0 16 6 16 6 0 58 0 57 -52 9 -52 9 -6
25 -6 25 -20 3 -21 3 -13 -15z"/>
</g>
</svg>
