<?xml version="1.0" standalone="no"?>
<!DOCTYPE svg PUBLIC "-//W3C//DTD SVG 20010904//EN"
 "http://www.w3.org/TR/2001/REC-SVG-20010904/DTD/svg10.dtd">
<svg version="1.0" xmlns="http://www.w3.org/2000/svg"
 width="25.000000pt" height="36.000000pt" viewBox="0 0 25.000000 36.000000"
 preserveAspectRatio="xMidYMid meet">
<metadata>
Created by potrace 1.16, written by Peter Selinger 2001-2019
</metadata>
<g transform="translate(0.000000,36.000000) scale(0.100000,-0.100000)"
fill="#000000" stroke="none">
<path d="M101 346 l-12 -14 7 -26 6 -26 -51 0 -51 0 0 -136 0 -135 43 3 42 3
3 33 3 32 23 0 24 0 10 -13 11 -13 -5 -21 -6 -20 19 -5 18 -5 31 9 31 8 -11
49 -10 50 -25 3 -26 3 0 30 0 30 25 1 25 1 13 1 12 2 0 52 0 51 -5 -5 -5 -5
-47 12 -48 12 -5 23 -6 24 -10 3 -11 4 -12 -15z"/>
</g>
</svg>
