<?xml version="1.0" standalone="no"?>
<!DOCTYPE svg PUBLIC "-//W3C//DTD SVG 20010904//EN"
 "http://www.w3.org/TR/2001/REC-SVG-20010904/DTD/svg10.dtd">
<svg version="1.0" xmlns="http://www.w3.org/2000/svg"
 width="28.000000pt" height="46.000000pt" viewBox="0 0 28.000000 46.000000"
 preserveAspectRatio="xMidYMid meet">
<metadata>
Created by potrace 1.16, written by Peter Selinger 2001-2019
</metadata>
<g transform="translate(0.000000,46.000000) scale(0.100000,-0.100000)"
fill="#000000" stroke="none">
<path d="M111 451 l-14 -9 7 -17 6 -18 -17 -13 -18 -13 -37 -1 -38 0 0 -52 0
-53 9 -13 8 -13 26 7 27 6 0 -21 0 -21 -19 0 -20 0 -11 -55 -11 -55 6 -10 6
-10 39 0 39 0 3 -37 3 -38 28 -10 29 -10 14 20 14 19 0 23 0 23 34 0 34 0 11
14 11 13 -13 54 -14 54 -27 13 -26 13 5 10 6 9 35 0 34 0 0 60 0 60 -25 5 -25
5 -24 5 -24 5 5 21 6 21 -14 9 -14 9 -20 0 -20 0 -14 -9z"/>
</g>
</svg>
