<?xml version="1.0" standalone="no"?>
<!DOCTYPE svg PUBLIC "-//W3C//DTD SVG 20010904//EN"
 "http://www.w3.org/TR/2001/REC-SVG-20010904/DTD/svg10.dtd">
<svg version="1.0" xmlns="http://www.w3.org/2000/svg"
 width="26.000000pt" height="44.000000pt" viewBox="0 0 26.000000 44.000000"
 preserveAspectRatio="xMidYMid meet">
<metadata>
Created by potrace 1.16, written by Peter Selinger 2001-2019
</metadata>
<g transform="translate(0.000000,44.000000) scale(0.100000,-0.100000)"
fill="#000000" stroke="none">
<path d="M114 434 l-11 -5 4 -22 5 -23 -24 -12 -23 -12 -32 -2 -33 -2 0 -37 0
-37 5 -14 6 -14 29 4 30 4 0 -31 0 -31 -19 0 -19 0 -10 -47 -11 -47 5 -8 5 -8
40 0 39 0 0 -35 0 -34 21 -12 21 -11 11 11 11 11 1 28 2 27 34 3 34 4 11 9 11
9 -12 47 -12 48 -27 13 -27 14 3 16 3 17 38 3 37 3 0 49 0 50 -27 5 -28 6 -23
5 -24 5 6 23 6 24 -16 6 -16 6 -6 -1 -7 -1 -11 -4z"/>
</g>
</svg>
